<?xml version="1.0" encoding="UTF-8" standalone="no"?>
<!DOCTYPE svg PUBLIC "-//W3C//DTD SVG 1.1//EN"
 "http://www.w3.org/Graphics/SVG/1.1/DTD/svg11.dtd">
<!-- Generated by graphviz version 2.43.0 (0)
 -->
<!-- Title: MainWindow::setupAGVUI Pages: 1 -->
<svg width="497pt" height="38pt"
 viewBox="0.00 0.00 497.00 38.00" xmlns="http://www.w3.org/2000/svg" xmlns:xlink="http://www.w3.org/1999/xlink">
<g id="graph0" class="graph" transform="scale(1 1) rotate(0) translate(4 34)">
<title>MainWindow::setupAGVUI</title>
<!-- Node1 -->
<g id="Node000001" class="node">
<title>Node1</title>
<g id="a_Node000001"><a xlink:title="初始化 AGV 相关 UI">
<polygon fill="#999999" stroke="#666666" points="143,-24.5 0,-24.5 0,-5.5 143,-5.5 143,-24.5"/>
<text text-anchor="middle" x="71.5" y="-12.5" font-family="Helvetica,sans-Serif" font-size="10.00">MainWindow::setupAGVUI</text>
</a>
</g>
</g>
<!-- Node2 -->
<g id="Node000002" class="node">
<title>Node2</title>
<g id="a_Node000002"><a xlink:href="classMainWindow.html#a8c5c1b8b58df6dba337afa33818f4b7a" target="_top" xlink:title=" ">
<polygon fill="white" stroke="#666666" points="325,-30 179,-30 179,0 325,0 325,-30"/>
<text text-anchor="start" x="187" y="-18" font-family="Helvetica,sans-Serif" font-size="10.00">MainWindow::isBigFeature</text>
<text text-anchor="middle" x="252" y="-7" font-family="Helvetica,sans-Serif" font-size="10.00">Enabled</text>
</a>
</g>
</g>
<!-- Node1&#45;&gt;Node2 -->
<g id="edge1_Node000001_Node000002" class="edge">
<title>Node1&#45;&gt;Node2</title>
<g id="a_edge1_Node000001_Node000002"><a xlink:title=" ">
<path fill="none" stroke="#63b8ff" d="M143.05,-15C151.52,-15 160.23,-15 168.86,-15"/>
<polygon fill="#63b8ff" stroke="#63b8ff" points="168.92,-18.5 178.92,-15 168.92,-11.5 168.92,-18.5"/>
</a>
</g>
</g>
<!-- Node3 -->
<g id="Node000003" class="node">
<title>Node3</title>
<g id="a_Node000003"><a xlink:href="classFeatureSwitchManager.html#aa558b5e5c8c59422920a0006cc304f0e" target="_top" xlink:title="检查某个大功能是否可用">
<polygon fill="white" stroke="#666666" points="489,-30 361,-30 361,0 489,0 489,-30"/>
<text text-anchor="start" x="369" y="-18" font-family="Helvetica,sans-Serif" font-size="10.00">FeatureSwitchManager</text>
<text text-anchor="middle" x="425" y="-7" font-family="Helvetica,sans-Serif" font-size="10.00">::isBigFeatureEnabled</text>
</a>
</g>
</g>
<!-- Node2&#45;&gt;Node3 -->
<g id="edge2_Node000002_Node000003" class="edge">
<title>Node2&#45;&gt;Node3</title>
<g id="a_edge2_Node000002_Node000003"><a xlink:title=" ">
<path fill="none" stroke="#63b8ff" d="M325.02,-15C333.46,-15 342.08,-15 350.53,-15"/>
<polygon fill="#63b8ff" stroke="#63b8ff" points="350.74,-18.5 360.74,-15 350.74,-11.5 350.74,-18.5"/>
</a>
</g>
</g>
</g>
</svg>
