<?xml version="1.0" encoding="UTF-8" standalone="no"?>
<!DOCTYPE svg PUBLIC "-//W3C//DTD SVG 1.1//EN"
 "http://www.w3.org/Graphics/SVG/1.1/DTD/svg11.dtd">
<!-- Generated by graphviz version 2.43.0 (0)
 -->
<!-- Title: FeatureSwitchWidget::onApply Pages: 1 -->
<svg width="307pt" height="278pt"
 viewBox="0.00 0.00 307.00 278.00" xmlns="http://www.w3.org/2000/svg" xmlns:xlink="http://www.w3.org/1999/xlink">
<g id="graph0" class="graph" transform="scale(1 1) rotate(0) translate(4 274)">
<title>FeatureSwitchWidget::onApply</title>
<!-- Node1 -->
<g id="Node000001" class="node">
<title>Node1</title>
<g id="a_Node000001"><a xlink:title=" ">
<polygon fill="#999999" stroke="#666666" points="120,-150 0,-150 0,-120 120,-120 120,-150"/>
<text text-anchor="start" x="8" y="-138" font-family="Helvetica,sans-Serif" font-size="10.00">FeatureSwitchWidget</text>
<text text-anchor="middle" x="60" y="-127" font-family="Helvetica,sans-Serif" font-size="10.00">::onApply</text>
</a>
</g>
</g>
<!-- Node2 -->
<g id="Node000002" class="node">
<title>Node2</title>
<g id="a_Node000002"><a xlink:href="classFeatureSwitchManager.html#a5ed26f22003763fbda90121157d73a42" target="_top" xlink:title="获取单例实例">
<polygon fill="white" stroke="#666666" points="291.5,-270 163.5,-270 163.5,-240 291.5,-240 291.5,-270"/>
<text text-anchor="start" x="171.5" y="-258" font-family="Helvetica,sans-Serif" font-size="10.00">FeatureSwitchManager</text>
<text text-anchor="middle" x="227.5" y="-247" font-family="Helvetica,sans-Serif" font-size="10.00">::instance</text>
</a>
</g>
</g>
<!-- Node1&#45;&gt;Node2 -->
<g id="edge1_Node000001_Node000002" class="edge">
<title>Node1&#45;&gt;Node2</title>
<g id="a_edge1_Node000001_Node000002"><a xlink:title=" ">
<path fill="none" stroke="#63b8ff" d="M72.23,-150.14C88.51,-171.09 120.62,-208.85 156,-231 158.6,-232.63 161.33,-234.16 164.13,-235.6"/>
<polygon fill="#63b8ff" stroke="#63b8ff" points="162.75,-238.82 173.29,-239.9 165.72,-232.48 162.75,-238.82"/>
</a>
</g>
</g>
<!-- Node3 -->
<g id="Node000003" class="node">
<title>Node3</title>
<g id="a_Node000003"><a xlink:href="classFeatureSwitchWidget.html#a9d417b9c0e80c8f3e1ec80401fc358e9" target="_top" xlink:title=" ">
<polygon fill="white" stroke="#666666" points="299,-222 156,-222 156,-192 299,-192 299,-222"/>
<text text-anchor="start" x="164" y="-210" font-family="Helvetica,sans-Serif" font-size="10.00">FeatureSwitchWidget</text>
<text text-anchor="middle" x="227.5" y="-199" font-family="Helvetica,sans-Serif" font-size="10.00">::runtimeSettingsChanged</text>
</a>
</g>
</g>
<!-- Node1&#45;&gt;Node3 -->
<g id="edge2_Node000001_Node000003" class="edge">
<title>Node1&#45;&gt;Node3</title>
<g id="a_edge2_Node000001_Node000003"><a xlink:title=" ">
<path fill="none" stroke="#63b8ff" d="M88.37,-150.11C107.1,-160.13 132.66,-173.19 156,-183 160.39,-184.84 164.97,-186.66 169.6,-188.4"/>
<polygon fill="#63b8ff" stroke="#63b8ff" points="168.54,-191.74 179.13,-191.89 170.95,-185.17 168.54,-191.74"/>
</a>
</g>
</g>
<!-- Node4 -->
<g id="Node000004" class="node">
<title>Node4</title>
<g id="a_Node000004"><a xlink:href="classFeatureSwitchWidget.html#a704a49c2842c06b15041740837900102" target="_top" xlink:title=" ">
<polygon fill="white" stroke="#666666" points="287.5,-174 167.5,-174 167.5,-144 287.5,-144 287.5,-174"/>
<text text-anchor="start" x="175.5" y="-162" font-family="Helvetica,sans-Serif" font-size="10.00">FeatureSwitchWidget</text>
<text text-anchor="middle" x="227.5" y="-151" font-family="Helvetica,sans-Serif" font-size="10.00">::savePollingState</text>
</a>
</g>
</g>
<!-- Node1&#45;&gt;Node4 -->
<g id="edge3_Node000001_Node000004" class="edge">
<title>Node1&#45;&gt;Node4</title>
<g id="a_edge3_Node000001_Node000004"><a xlink:title=" ">
<path fill="none" stroke="#63b8ff" d="M120.28,-143.6C132.24,-145.33 144.91,-147.17 157.17,-148.95"/>
<polygon fill="#63b8ff" stroke="#63b8ff" points="156.96,-152.45 167.35,-150.42 157.96,-145.52 156.96,-152.45"/>
</a>
</g>
</g>
<!-- Node5 -->
<g id="Node000005" class="node">
<title>Node5</title>
<g id="a_Node000005"><a xlink:href="classFeatureSwitchWidget.html#a6eb603279d65fd4d5bbe83c8b1011fda" target="_top" xlink:title=" ">
<polygon fill="white" stroke="#666666" points="289.5,-126 165.5,-126 165.5,-96 289.5,-96 289.5,-126"/>
<text text-anchor="start" x="173.5" y="-114" font-family="Helvetica,sans-Serif" font-size="10.00">FeatureSwitchWidget</text>
<text text-anchor="middle" x="227.5" y="-103" font-family="Helvetica,sans-Serif" font-size="10.00">::saveSliderLimitState</text>
</a>
</g>
</g>
<!-- Node1&#45;&gt;Node5 -->
<g id="edge4_Node000001_Node000005" class="edge">
<title>Node1&#45;&gt;Node5</title>
<g id="a_edge4_Node000001_Node000005"><a xlink:title=" ">
<path fill="none" stroke="#63b8ff" d="M120.28,-126.4C131.62,-124.76 143.59,-123.02 155.25,-121.33"/>
<polygon fill="#63b8ff" stroke="#63b8ff" points="156.01,-124.76 165.4,-119.86 155,-117.83 156.01,-124.76"/>
</a>
</g>
</g>
<!-- Node6 -->
<g id="Node000006" class="node">
<title>Node6</title>
<g id="a_Node000006"><a xlink:href="classFeatureSwitchManager.html#a710ead3beef5bb00357f0fde5ed738ac" target="_top" xlink:title="设置指定大功能是否启用（仅影响内存中的禁用集合）">
<polygon fill="white" stroke="#666666" points="292,-78 163,-78 163,-48 292,-48 292,-78"/>
<text text-anchor="start" x="171" y="-66" font-family="Helvetica,sans-Serif" font-size="10.00">FeatureSwitchManager</text>
<text text-anchor="middle" x="227.5" y="-55" font-family="Helvetica,sans-Serif" font-size="10.00">::setBigFeatureEnabled</text>
</a>
</g>
</g>
<!-- Node1&#45;&gt;Node6 -->
<g id="edge5_Node000001_Node000006" class="edge">
<title>Node1&#45;&gt;Node6</title>
<g id="a_edge5_Node000001_Node000006"><a xlink:title=" ">
<path fill="none" stroke="#63b8ff" d="M88.37,-119.89C107.1,-109.87 132.66,-96.81 156,-87 160.39,-85.16 164.97,-83.34 169.6,-81.6"/>
<polygon fill="#63b8ff" stroke="#63b8ff" points="170.95,-84.83 179.13,-78.11 168.54,-78.26 170.95,-84.83"/>
</a>
</g>
</g>
<!-- Node7 -->
<g id="Node000007" class="node">
<title>Node7</title>
<g id="a_Node000007"><a xlink:href="classFeatureSwitchManager.html#a5d75d65f618101341ff118d9ba3546ef" target="_top" xlink:title="设置指定小功能是否启用（仅影响内存中的禁用集合）">
<polygon fill="white" stroke="#666666" points="298,-30 157,-30 157,0 298,0 298,-30"/>
<text text-anchor="start" x="165" y="-18" font-family="Helvetica,sans-Serif" font-size="10.00">FeatureSwitchManager</text>
<text text-anchor="middle" x="227.5" y="-7" font-family="Helvetica,sans-Serif" font-size="10.00">::setSmallFeatureEnabled</text>
</a>
</g>
</g>
<!-- Node1&#45;&gt;Node7 -->
<g id="edge6_Node000001_Node000007" class="edge">
<title>Node1&#45;&gt;Node7</title>
<g id="a_edge6_Node000001_Node000007"><a xlink:title=" ">
<path fill="none" stroke="#63b8ff" d="M72.23,-119.86C88.51,-98.91 120.62,-61.15 156,-39 158.6,-37.37 161.33,-35.84 164.13,-34.4"/>
<polygon fill="#63b8ff" stroke="#63b8ff" points="165.72,-37.52 173.29,-30.1 162.75,-31.18 165.72,-37.52"/>
</a>
</g>
</g>
</g>
</svg>
