<?xml version="1.0" encoding="UTF-8" standalone="no"?>
<!DOCTYPE svg PUBLIC "-//W3C//DTD SVG 1.1//EN"
 "http://www.w3.org/Graphics/SVG/1.1/DTD/svg11.dtd">
<!-- Generated by graphviz version 2.43.0 (0)
 -->
<!-- Title: TechSliderEdit::valueChanged Pages: 1 -->
<svg width="1307pt" height="341pt"
 viewBox="0.00 0.00 1307.00 340.75" xmlns="http://www.w3.org/2000/svg" xmlns:xlink="http://www.w3.org/1999/xlink">
<g id="graph0" class="graph" transform="scale(1 1) rotate(0) translate(4 336.75)">
<title>TechSliderEdit::valueChanged</title>
<!-- Node1 -->
<g id="Node000001" class="node">
<title>Node1</title>
<g id="a_Node000001"><a xlink:title=" ">
<polygon fill="#999999" stroke="#666666" points="1299,-289.25 1138,-289.25 1138,-270.25 1299,-270.25 1299,-289.25"/>
<text text-anchor="middle" x="1218.5" y="-277.25" font-family="Helvetica,sans-Serif" font-size="10.00">TechSliderEdit::valueChanged</text>
</a>
</g>
</g>
<!-- Node2 -->
<g id="Node000002" class="node">
<title>Node2</title>
<g id="a_Node000002"><a xlink:href="classTechSliderEdit.html#ad2f8193d4f07c0554214f2ebfa6cc23c" target="_top" xlink:title=" ">
<polygon fill="white" stroke="#666666" points="1101,-93.75 970,-93.75 970,-63.75 1101,-63.75 1101,-93.75"/>
<text text-anchor="start" x="978" y="-81.75" font-family="Helvetica,sans-Serif" font-size="10.00">TechSliderEdit::onSlider</text>
<text text-anchor="middle" x="1035.5" y="-70.75" font-family="Helvetica,sans-Serif" font-size="10.00">ValueChanged</text>
</a>
</g>
</g>
<!-- Node1&#45;&gt;Node2 -->
<g id="edge1_Node000001_Node000002" class="edge">
<title>Node1&#45;&gt;Node2</title>
<g id="a_edge1_Node000001_Node000002"><a xlink:title=" ">
<path fill="none" stroke="#63b8ff" d="M1201.7,-262.2C1166.65,-223.28 1082.92,-130.29 1050.06,-93.8"/>
<polygon fill="#63b8ff" stroke="#63b8ff" points="1199.48,-264.96 1208.77,-270.05 1204.68,-260.28 1199.48,-264.96"/>
</a>
</g>
</g>
<!-- Node5 -->
<g id="Node000005" class="node">
<title>Node5</title>
<g id="a_Node000005"><a xlink:href="classMainWindow.html#a7625a1c596346b3592fda2f39cc0b604" target="_top" xlink:title="初始化 AGV 角度控制">
<polygon fill="white" stroke="#666666" points="733,-332.75 573,-332.75 573,-302.75 733,-302.75 733,-332.75"/>
<text text-anchor="start" x="581" y="-320.75" font-family="Helvetica,sans-Serif" font-size="10.00">MainWindow::setupAGVAngle</text>
<text text-anchor="middle" x="653" y="-309.75" font-family="Helvetica,sans-Serif" font-size="10.00">Control</text>
</a>
</g>
</g>
<!-- Node1&#45;&gt;Node5 -->
<g id="edge4_Node000001_Node000005" class="edge">
<title>Node1&#45;&gt;Node5</title>
<g id="a_edge4_Node000001_Node000005"><a xlink:title=" ">
<path fill="none" stroke="#63b8ff" d="M1181.83,-292.55C1159.27,-299.99 1129.31,-308.67 1102,-312.75 973.91,-331.85 822.93,-328.22 733.02,-323.34"/>
<polygon fill="#63b8ff" stroke="#63b8ff" points="1182.97,-295.86 1191.32,-289.34 1180.73,-289.22 1182.97,-295.86"/>
</a>
</g>
</g>
<!-- Node8 -->
<g id="Node000008" class="node">
<title>Node8</title>
<g id="a_Node000008"><a xlink:href="classMainWindow.html#a4f8f498d15b56ddc6c8912ee726c3444" target="_top" xlink:title="初始化 AGV 移动速度控制">
<polygon fill="white" stroke="#666666" points="733,-284.75 573,-284.75 573,-254.75 733,-254.75 733,-284.75"/>
<text text-anchor="start" x="581" y="-272.75" font-family="Helvetica,sans-Serif" font-size="10.00">MainWindow::setupAGVMove</text>
<text text-anchor="middle" x="653" y="-261.75" font-family="Helvetica,sans-Serif" font-size="10.00">SpeedControl</text>
</a>
</g>
</g>
<!-- Node1&#45;&gt;Node8 -->
<g id="edge7_Node000001_Node000008" class="edge">
<title>Node1&#45;&gt;Node8</title>
<g id="a_edge7_Node000001_Node000008"><a xlink:title=" ">
<path fill="none" stroke="#63b8ff" d="M1139.7,-290.5C1051.65,-300.95 904.07,-313.29 778,-298.75 754.17,-296 728.27,-290.37 706.33,-284.8"/>
<polygon fill="#63b8ff" stroke="#63b8ff" points="1140.37,-293.94 1149.88,-289.26 1139.53,-286.99 1140.37,-293.94"/>
</a>
</g>
</g>
<!-- Node9 -->
<g id="Node000009" class="node">
<title>Node9</title>
<g id="a_Node000009"><a xlink:href="classTechSliderEdit.html#a96a5c7481f43a7417a24c2fa8d89440f" target="_top" xlink:title="使用示例:">
<polygon fill="white" stroke="#666666" points="1102,-214.25 969,-214.25 969,-195.25 1102,-195.25 1102,-214.25"/>
<text text-anchor="middle" x="1035.5" y="-202.25" font-family="Helvetica,sans-Serif" font-size="10.00">TechSliderEdit::setValue</text>
</a>
</g>
</g>
<!-- Node1&#45;&gt;Node9 -->
<g id="edge9_Node000001_Node000009" class="edge">
<title>Node1&#45;&gt;Node9</title>
<g id="a_edge9_Node000001_Node000009"><a xlink:title=" ">
<path fill="none" stroke="#63b8ff" d="M1184.62,-266.12C1148.5,-251.15 1091.42,-227.5 1059.7,-214.36"/>
<polygon fill="#63b8ff" stroke="#63b8ff" points="1183.63,-269.5 1194.21,-270.09 1186.31,-263.03 1183.63,-269.5"/>
</a>
</g>
</g>
<!-- Node3 -->
<g id="Node000003" class="node">
<title>Node3</title>
<g id="a_Node000003"><a xlink:href="classTechSliderEdit.html#a605c2b2596c5ea34105eb11470bc1f41" target="_top" xlink:title=" ">
<polygon fill="white" stroke="#666666" points="742,-90.25 564,-90.25 564,-71.25 742,-71.25 742,-90.25"/>
<text text-anchor="middle" x="653" y="-78.25" font-family="Helvetica,sans-Serif" font-size="10.00">TechSliderEdit::setupConnections</text>
</a>
</g>
</g>
<!-- Node2&#45;&gt;Node3 -->
<g id="edge2_Node000002_Node000003" class="edge">
<title>Node2&#45;&gt;Node3</title>
<g id="a_edge2_Node000002_Node000003"><a xlink:title=" ">
<path fill="none" stroke="#63b8ff" d="M1009.71,-57.08C990.31,-41.65 961.86,-22.2 933,-13.75 866.89,5.61 844.79,3.14 778,-13.75 733.64,-24.96 687.92,-55.54 666.5,-71.21"/>
<polygon fill="#63b8ff" stroke="#63b8ff" points="1007.75,-60 1017.7,-63.62 1012.18,-54.58 1007.75,-60"/>
</a>
</g>
</g>
<!-- Node4 -->
<g id="Node000004" class="node">
<title>Node4</title>
<g id="a_Node000004"><a xlink:href="classTechSliderEdit.html#a94e81a0fe9bd2fa6c8b4bab981b9631a" target="_top" xlink:title="构造 TechSliderEdit 控件">
<polygon fill="white" stroke="#666666" points="528,-155.25 369,-155.25 369,-136.25 528,-136.25 528,-155.25"/>
<text text-anchor="middle" x="448.5" y="-143.25" font-family="Helvetica,sans-Serif" font-size="10.00">TechSliderEdit::TechSliderEdit</text>
</a>
</g>
</g>
<!-- Node3&#45;&gt;Node4 -->
<g id="edge3_Node000003_Node000004" class="edge">
<title>Node3&#45;&gt;Node4</title>
<g id="a_edge3_Node000003_Node000004"><a xlink:title=" ">
<path fill="none" stroke="#63b8ff" d="M612.39,-93.46C573.29,-106.01 514.4,-124.91 479.17,-136.22"/>
<polygon fill="#63b8ff" stroke="#63b8ff" points="613.67,-96.73 622.12,-90.34 611.53,-90.06 613.67,-96.73"/>
</a>
</g>
</g>
<!-- Node6 -->
<g id="Node000006" class="node">
<title>Node6</title>
<g id="a_Node000006"><a xlink:href="classMainWindow.html#ad57bfa690bd649e9b5b43552d4f5673c" target="_top" xlink:title="初始化业务子系统（通信、线程、样式、控制）">
<polygon fill="white" stroke="#666666" points="523,-284.75 374,-284.75 374,-254.75 523,-254.75 523,-284.75"/>
<text text-anchor="start" x="382" y="-272.75" font-family="Helvetica,sans-Serif" font-size="10.00">MainWindow::initializeCore</text>
<text text-anchor="middle" x="448.5" y="-261.75" font-family="Helvetica,sans-Serif" font-size="10.00">Subsystems</text>
</a>
</g>
</g>
<!-- Node5&#45;&gt;Node6 -->
<g id="edge5_Node000005_Node000006" class="edge">
<title>Node5&#45;&gt;Node6</title>
<g id="a_edge5_Node000005_Node000006"><a xlink:title=" ">
<path fill="none" stroke="#63b8ff" d="M578.71,-300.37C557.12,-295.26 533.69,-289.7 512.79,-284.75"/>
<polygon fill="#63b8ff" stroke="#63b8ff" points="577.95,-303.79 588.48,-302.69 579.56,-296.98 577.95,-303.79"/>
</a>
</g>
</g>
<!-- Node7 -->
<g id="Node000007" class="node">
<title>Node7</title>
<g id="a_Node000007"><a xlink:href="classMainWindow.html#a996c5a2b6f77944776856f08ec30858d" target="_top" xlink:title="构造 MainWindow 并初始化内部状态与 UI">
<polygon fill="white" stroke="#666666" points="148,-257.25 0,-257.25 0,-238.25 148,-238.25 148,-257.25"/>
<text text-anchor="middle" x="74" y="-245.25" font-family="Helvetica,sans-Serif" font-size="10.00">MainWindow::MainWindow</text>
</a>
</g>
</g>
<!-- Node6&#45;&gt;Node7 -->
<g id="edge6_Node000006_Node000007" class="edge">
<title>Node6&#45;&gt;Node7</title>
<g id="a_edge6_Node000006_Node000007"><a xlink:title=" ">
<path fill="none" stroke="#63b8ff" d="M363.72,-264.8C298.91,-260.97 210.08,-255.72 148.12,-252.06"/>
<polygon fill="#63b8ff" stroke="#63b8ff" points="363.72,-268.3 373.91,-265.4 364.13,-261.32 363.72,-268.3"/>
</a>
</g>
</g>
<!-- Node8&#45;&gt;Node6 -->
<g id="edge8_Node000008_Node000006" class="edge">
<title>Node8&#45;&gt;Node6</title>
<g id="a_edge8_Node000008_Node000006"><a xlink:title=" ">
<path fill="none" stroke="#63b8ff" d="M562.82,-269.75C549.62,-269.75 536.15,-269.75 523.31,-269.75"/>
<polygon fill="#63b8ff" stroke="#63b8ff" points="562.84,-273.25 572.84,-269.75 562.84,-266.25 562.84,-273.25"/>
</a>
</g>
</g>
<!-- Node9&#45;&gt;Node4 -->
<g id="edge25_Node000009_Node000004" class="edge">
<title>Node9&#45;&gt;Node4</title>
<g id="a_edge25_Node000009_Node000004"><a xlink:title=" ">
<path fill="none" stroke="#63b8ff" d="M958.68,-197.1C847.49,-185.89 641.19,-165.08 528.32,-153.69"/>
<polygon fill="#63b8ff" stroke="#63b8ff" points="958.51,-200.6 968.81,-198.12 959.22,-193.64 958.51,-200.6"/>
</a>
</g>
</g>
<!-- Node9&#45;&gt;Node5 -->
<g id="edge23_Node000009_Node000005" class="edge">
<title>Node9&#45;&gt;Node5</title>
<g id="a_edge23_Node000009_Node000005"><a xlink:title=" ">
<path fill="none" stroke="#63b8ff" d="M1021.71,-222.44C1004.44,-244.75 971.35,-282.19 933,-298.75 869.71,-326.07 790.79,-328.93 733.05,-326.05"/>
<polygon fill="#63b8ff" stroke="#63b8ff" points="1024.52,-224.53 1027.73,-214.43 1018.92,-220.32 1024.52,-224.53"/>
</a>
</g>
</g>
<!-- Node9&#45;&gt;Node8 -->
<g id="edge24_Node000009_Node000008" class="edge">
<title>Node9&#45;&gt;Node8</title>
<g id="a_edge24_Node000009_Node000008"><a xlink:title=" ">
<path fill="none" stroke="#63b8ff" d="M958.8,-201.86C906.82,-201.98 836.85,-206.35 778,-224.75 760.32,-230.27 759.08,-238.58 742,-245.75 734.11,-249.05 725.64,-252.03 717.18,-254.68"/>
<polygon fill="#63b8ff" stroke="#63b8ff" points="958.94,-205.36 968.95,-201.88 958.96,-198.36 958.94,-205.36"/>
</a>
</g>
</g>
<!-- Node10 -->
<g id="Node000010" class="node">
<title>Node10</title>
<g id="a_Node000010"><a xlink:href="classTechSliderEdit.html#a57a44d7b0f67e653251e06693126c9d0" target="_top" xlink:title=" ">
<polygon fill="white" stroke="#666666" points="926.5,-52.75 784.5,-52.75 784.5,-22.75 926.5,-22.75 926.5,-52.75"/>
<text text-anchor="start" x="792.5" y="-40.75" font-family="Helvetica,sans-Serif" font-size="10.00">TechSliderEdit::onLineEdit</text>
<text text-anchor="middle" x="855.5" y="-29.75" font-family="Helvetica,sans-Serif" font-size="10.00">EditingFinished</text>
</a>
</g>
</g>
<!-- Node9&#45;&gt;Node10 -->
<g id="edge10_Node000009_Node000010" class="edge">
<title>Node9&#45;&gt;Node10</title>
<g id="a_edge10_Node000009_Node000010"><a xlink:title=" ">
<path fill="none" stroke="#63b8ff" d="M1023.66,-186.59C1002.75,-152.12 956.86,-79.09 933,-61.75 928.27,-58.31 923.04,-55.35 917.59,-52.81"/>
<polygon fill="#63b8ff" stroke="#63b8ff" points="1020.69,-188.45 1028.85,-195.21 1026.69,-184.83 1020.69,-188.45"/>
</a>
</g>
</g>
<!-- Node11 -->
<g id="Node000011" class="node">
<title>Node11</title>
<g id="a_Node000011"><a xlink:href="classTechSliderEdit.html#a523451e60070cadaff4b4c214fa712a6" target="_top" xlink:title=" ">
<polygon fill="white" stroke="#666666" points="922.5,-138.75 788.5,-138.75 788.5,-108.75 922.5,-108.75 922.5,-138.75"/>
<text text-anchor="start" x="796.5" y="-126.75" font-family="Helvetica,sans-Serif" font-size="10.00">TechSliderEdit::onPreset</text>
<text text-anchor="middle" x="855.5" y="-115.75" font-family="Helvetica,sans-Serif" font-size="10.00">ButtonClicked</text>
</a>
</g>
</g>
<!-- Node9&#45;&gt;Node11 -->
<g id="edge12_Node000009_Node000011" class="edge">
<title>Node9&#45;&gt;Node11</title>
<g id="a_edge12_Node000009_Node000011"><a xlink:title=" ">
<path fill="none" stroke="#63b8ff" d="M1008.25,-190.28C987.98,-179.36 959.09,-164.33 933,-152.75 922.1,-147.9 910.11,-143.12 898.93,-138.87"/>
<polygon fill="#63b8ff" stroke="#63b8ff" points="1006.73,-193.43 1017.18,-195.13 1010.06,-187.28 1006.73,-193.43"/>
</a>
</g>
</g>
<!-- Node12 -->
<g id="Node000012" class="node">
<title>Node12</title>
<g id="a_Node000012"><a xlink:href="classTechSliderEdit.html#acb7f37cae462c76f5f7b95ccd916e31a" target="_top" xlink:title=" ">
<polygon fill="white" stroke="#666666" points="933,-90.25 778,-90.25 778,-71.25 933,-71.25 933,-90.25"/>
<text text-anchor="middle" x="855.5" y="-78.25" font-family="Helvetica,sans-Serif" font-size="10.00">TechSliderEdit::setMaximum</text>
</a>
</g>
</g>
<!-- Node9&#45;&gt;Node12 -->
<g id="edge14_Node000009_Node000012" class="edge">
<title>Node9&#45;&gt;Node12</title>
<g id="a_edge14_Node000009_Node000012"><a xlink:title=" ">
<path fill="none" stroke="#63b8ff" d="M1022.19,-186.79C1005.02,-163.15 971.59,-121.99 933,-99.75 926.24,-95.85 918.7,-92.75 911.06,-90.28"/>
<polygon fill="#63b8ff" stroke="#63b8ff" points="1019.51,-189.06 1028.15,-195.19 1025.22,-185.01 1019.51,-189.06"/>
</a>
</g>
</g>
<!-- Node13 -->
<g id="Node000013" class="node">
<title>Node13</title>
<g id="a_Node000013"><a xlink:href="classTechSliderEdit.html#a1e60c2c4092af52badc483be253636ed" target="_top" xlink:title=" ">
<polygon fill="white" stroke="#666666" points="931.5,-289.25 779.5,-289.25 779.5,-270.25 931.5,-270.25 931.5,-289.25"/>
<text text-anchor="middle" x="855.5" y="-277.25" font-family="Helvetica,sans-Serif" font-size="10.00">TechSliderEdit::setMinimum</text>
</a>
</g>
</g>
<!-- Node9&#45;&gt;Node13 -->
<g id="edge15_Node000009_Node000013" class="edge">
<title>Node9&#45;&gt;Node13</title>
<g id="a_edge15_Node000009_Node000013"><a xlink:title=" ">
<path fill="none" stroke="#63b8ff" d="M1011.93,-219.87C991.94,-232.65 961.58,-250.62 933,-261.75 924.48,-265.06 915.18,-267.88 906.09,-270.22"/>
<polygon fill="#63b8ff" stroke="#63b8ff" points="1013.87,-222.78 1020.34,-214.4 1010.05,-216.91 1013.87,-222.78"/>
</a>
</g>
</g>
<!-- Node14 -->
<g id="Node000014" class="node">
<title>Node14</title>
<g id="a_Node000014"><a xlink:href="classTechSliderEdit.html#abd122704eaae8d341b613b8ad3cddccf" target="_top" xlink:title="设置可选范围">
<polygon fill="white" stroke="#666666" points="924,-252.25 787,-252.25 787,-233.25 924,-233.25 924,-252.25"/>
<text text-anchor="middle" x="855.5" y="-240.25" font-family="Helvetica,sans-Serif" font-size="10.00">TechSliderEdit::setRange</text>
</a>
</g>
</g>
<!-- Node9&#45;&gt;Node14 -->
<g id="edge16_Node000009_Node000014" class="edge">
<title>Node9&#45;&gt;Node14</title>
<g id="a_edge16_Node000009_Node000014"><a xlink:title=" ">
<path fill="none" stroke="#63b8ff" d="M979.78,-216.43C954.54,-221.82 924.95,-228.13 901.09,-233.23"/>
<polygon fill="#63b8ff" stroke="#63b8ff" points="980.53,-219.85 989.58,-214.33 979.07,-213 980.53,-219.85"/>
</a>
</g>
</g>
<!-- Node10&#45;&gt;Node3 -->
<g id="edge11_Node000010_Node000003" class="edge">
<title>Node10&#45;&gt;Node3</title>
<g id="a_edge11_Node000010_Node000003"><a xlink:title=" ">
<path fill="none" stroke="#63b8ff" d="M774.54,-54.89C748.61,-60.46 720.78,-66.42 698.4,-71.22"/>
<polygon fill="#63b8ff" stroke="#63b8ff" points="775.33,-58.3 784.37,-52.79 773.86,-51.46 775.33,-58.3"/>
</a>
</g>
</g>
<!-- Node11&#45;&gt;Node3 -->
<g id="edge13_Node000011_Node000003" class="edge">
<title>Node11&#45;&gt;Node3</title>
<g id="a_edge13_Node000011_Node000003"><a xlink:title=" ">
<path fill="none" stroke="#63b8ff" d="M778.45,-107.44C751.4,-101.63 721.84,-95.3 698.33,-90.25"/>
<polygon fill="#63b8ff" stroke="#63b8ff" points="777.78,-110.87 788.29,-109.55 779.25,-104.03 777.78,-110.87"/>
</a>
</g>
</g>
<!-- Node14&#45;&gt;Node5 -->
<g id="edge21_Node000014_Node000005" class="edge">
<title>Node14&#45;&gt;Node5</title>
<g id="a_edge21_Node000014_Node000005"><a xlink:title=" ">
<path fill="none" stroke="#63b8ff" d="M792.23,-255.46C787.31,-257.29 782.5,-259.37 778,-261.75 759.06,-271.73 760.82,-283.55 742,-293.75 735.73,-297.14 728.95,-300.08 722.03,-302.63"/>
<polygon fill="#63b8ff" stroke="#63b8ff" points="793.45,-258.75 801.81,-252.25 791.22,-252.11 793.45,-258.75"/>
</a>
</g>
</g>
<!-- Node14&#45;&gt;Node8 -->
<g id="edge22_Node000014_Node000008" class="edge">
<title>Node14&#45;&gt;Node8</title>
<g id="a_edge22_Node000014_Node000008"><a xlink:title=" ">
<path fill="none" stroke="#63b8ff" d="M776.63,-253.23C762.34,-255.16 747.41,-257.17 733.09,-259.1"/>
<polygon fill="#63b8ff" stroke="#63b8ff" points="777.46,-256.65 786.9,-251.85 776.52,-249.72 777.46,-256.65"/>
</a>
</g>
</g>
<!-- Node15 -->
<g id="Node000015" class="node">
<title>Node15</title>
<g id="a_Node000015"><a xlink:href="classMainWindow.html#a3df3aeeec521f64af190b59a4580879f" target="_top" xlink:title="初始化滑块编辑 UI">
<polygon fill="white" stroke="#666666" points="732,-236.25 574,-236.25 574,-217.25 732,-217.25 732,-236.25"/>
<text text-anchor="middle" x="653" y="-224.25" font-family="Helvetica,sans-Serif" font-size="10.00">MainWindow::initSliderEditUI</text>
</a>
</g>
</g>
<!-- Node14&#45;&gt;Node15 -->
<g id="edge17_Node000014_Node000015" class="edge">
<title>Node14&#45;&gt;Node15</title>
<g id="a_edge17_Node000014_Node000015"><a xlink:title=" ">
<path fill="none" stroke="#63b8ff" d="M776.84,-236.55C762.14,-235.38 746.75,-234.15 732.03,-232.97"/>
<polygon fill="#63b8ff" stroke="#63b8ff" points="776.65,-240.04 786.9,-237.35 777.21,-233.07 776.65,-240.04"/>
</a>
</g>
</g>
<!-- Node16 -->
<g id="Node000016" class="node">
<title>Node16</title>
<g id="a_Node000016"><a xlink:href="classMainWindow.html#a9388168e83016e31d2668a501450bcac" target="_top" xlink:title="初始化窗口 UI（内部）">
<polygon fill="white" stroke="#666666" points="504,-236.25 393,-236.25 393,-217.25 504,-217.25 504,-236.25"/>
<text text-anchor="middle" x="448.5" y="-224.25" font-family="Helvetica,sans-Serif" font-size="10.00">MainWindow::initUI</text>
</a>
</g>
</g>
<!-- Node15&#45;&gt;Node16 -->
<g id="edge18_Node000015_Node000016" class="edge">
<title>Node15&#45;&gt;Node16</title>
<g id="a_edge18_Node000015_Node000016"><a xlink:title=" ">
<path fill="none" stroke="#63b8ff" d="M563.81,-226.75C543.55,-226.75 522.59,-226.75 504.23,-226.75"/>
<polygon fill="#63b8ff" stroke="#63b8ff" points="564,-230.25 574,-226.75 564,-223.25 564,-230.25"/>
</a>
</g>
</g>
<!-- Node17 -->
<g id="Node000017" class="node">
<title>Node17</title>
<g id="a_Node000017"><a xlink:href="classMainWindow.html#a0cb4955bff598ad95110e9525a52214d" target="_top" xlink:title="初始化核心页面和基础 UI 模块">
<polygon fill="white" stroke="#666666" points="333,-241.75 184,-241.75 184,-211.75 333,-211.75 333,-241.75"/>
<text text-anchor="start" x="192" y="-229.75" font-family="Helvetica,sans-Serif" font-size="10.00">MainWindow::initializeCore</text>
<text text-anchor="middle" x="258.5" y="-218.75" font-family="Helvetica,sans-Serif" font-size="10.00">PagesAndUi</text>
</a>
</g>
</g>
<!-- Node16&#45;&gt;Node17 -->
<g id="edge19_Node000016_Node000017" class="edge">
<title>Node16&#45;&gt;Node17</title>
<g id="a_edge19_Node000016_Node000017"><a xlink:title=" ">
<path fill="none" stroke="#63b8ff" d="M382.6,-226.75C366.66,-226.75 349.48,-226.75 333.16,-226.75"/>
<polygon fill="#63b8ff" stroke="#63b8ff" points="382.87,-230.25 392.87,-226.75 382.87,-223.25 382.87,-230.25"/>
</a>
</g>
</g>
<!-- Node17&#45;&gt;Node7 -->
<g id="edge20_Node000017_Node000007" class="edge">
<title>Node17&#45;&gt;Node7</title>
<g id="a_edge20_Node000017_Node000007"><a xlink:title=" ">
<path fill="none" stroke="#63b8ff" d="M173.79,-236.38C165.21,-237.37 156.54,-238.36 148.09,-239.34"/>
<polygon fill="#63b8ff" stroke="#63b8ff" points="174.26,-239.85 183.8,-235.23 173.46,-232.89 174.26,-239.85"/>
</a>
</g>
</g>
</g>
</svg>
