<?xml version="1.0" encoding="UTF-8" standalone="no"?>
<!DOCTYPE svg PUBLIC "-//W3C//DTD SVG 1.1//EN"
 "http://www.w3.org/Graphics/SVG/1.1/DTD/svg11.dtd">
<!-- Generated by graphviz version 2.43.0 (0)
 -->
<!-- Title: MainWindow::onAGVMoveSpeedChanged Pages: 1 -->
<svg width="1000pt" height="340pt"
 viewBox="0.00 0.00 1000.00 339.50" xmlns="http://www.w3.org/2000/svg" xmlns:xlink="http://www.w3.org/1999/xlink">
<g id="graph0" class="graph" transform="scale(1 1) rotate(0) translate(4 335.5)">
<title>MainWindow::onAGVMoveSpeedChanged</title>
<!-- Node1 -->
<g id="Node000001" class="node">
<title>Node1</title>
<g id="a_Node000001"><a xlink:title="AGV 移动速度变化">
<polygon fill="#999999" stroke="#666666" points="175,-114.5 0,-114.5 0,-84.5 175,-84.5 175,-114.5"/>
<text text-anchor="start" x="8" y="-102.5" font-family="Helvetica,sans-Serif" font-size="10.00">MainWindow::onAGVMoveSpeed</text>
<text text-anchor="middle" x="87.5" y="-91.5" font-family="Helvetica,sans-Serif" font-size="10.00">Changed</text>
</a>
</g>
</g>
<!-- Node2 -->
<g id="Node000002" class="node">
<title>Node2</title>
<g id="a_Node000002"><a xlink:href="classOperationRecorder.html#ae5e0a07f7b387272fd297c103b4fe42c" target="_top" xlink:title="添加操作记录">
<polygon fill="white" stroke="#666666" points="355.5,-160.5 241.5,-160.5 241.5,-130.5 355.5,-130.5 355.5,-160.5"/>
<text text-anchor="start" x="249.5" y="-148.5" font-family="Helvetica,sans-Serif" font-size="10.00">OperationRecorder::</text>
<text text-anchor="middle" x="298.5" y="-137.5" font-family="Helvetica,sans-Serif" font-size="10.00">addRecord</text>
</a>
</g>
</g>
<!-- Node1&#45;&gt;Node2 -->
<g id="edge1_Node000001_Node000002" class="edge">
<title>Node1&#45;&gt;Node2</title>
<g id="a_edge1_Node000001_Node000002"><a xlink:title=" ">
<path fill="none" stroke="#63b8ff" d="M156.93,-114.56C180.89,-119.84 207.73,-125.74 231.49,-130.97"/>
<polygon fill="#63b8ff" stroke="#63b8ff" points="230.95,-134.44 241.47,-133.17 232.45,-127.6 230.95,-134.44"/>
</a>
</g>
</g>
<!-- Node12 -->
<g id="Node000012" class="node">
<title>Node12</title>
<g id="a_Node000012"><a xlink:href="classMainWindow.html#aeb33203e3563d9db0e67d493e1a127a2" target="_top" xlink:title="向 AGV 写寄存器">
<polygon fill="white" stroke="#666666" points="386,-85 211,-85 211,-66 386,-66 386,-85"/>
<text text-anchor="middle" x="298.5" y="-73" font-family="Helvetica,sans-Serif" font-size="10.00">MainWindow::writeToAGVDevice</text>
</a>
</g>
</g>
<!-- Node1&#45;&gt;Node12 -->
<g id="edge11_Node000001_Node000012" class="edge">
<title>Node1&#45;&gt;Node12</title>
<g id="a_edge11_Node000001_Node000012"><a xlink:title=" ">
<path fill="none" stroke="#63b8ff" d="M175.02,-89.57C184.77,-88.45 194.74,-87.3 204.56,-86.17"/>
<polygon fill="#63b8ff" stroke="#63b8ff" points="205.21,-89.62 214.74,-85 204.41,-82.67 205.21,-89.62"/>
</a>
</g>
</g>
<!-- Node3 -->
<g id="Node000003" class="node">
<title>Node3</title>
<g id="a_Node000003"><a xlink:href="classOperationRecorder.html#a99de0d8b91e199e6f1aab3b664df07e1" target="_top" xlink:title=" ">
<polygon fill="white" stroke="#666666" points="568.5,-160.5 454.5,-160.5 454.5,-130.5 568.5,-130.5 568.5,-160.5"/>
<text text-anchor="start" x="462.5" y="-148.5" font-family="Helvetica,sans-Serif" font-size="10.00">OperationRecorder::</text>
<text text-anchor="middle" x="511.5" y="-137.5" font-family="Helvetica,sans-Serif" font-size="10.00">recordAdded</text>
</a>
</g>
</g>
<!-- Node2&#45;&gt;Node3 -->
<g id="edge2_Node000002_Node000003" class="edge">
<title>Node2&#45;&gt;Node3</title>
<g id="a_edge2_Node000002_Node000003"><a xlink:title=" ">
<path fill="none" stroke="#63b8ff" d="M355.77,-145.5C382.95,-145.5 415.75,-145.5 444.15,-145.5"/>
<polygon fill="#63b8ff" stroke="#63b8ff" points="444.39,-149 454.39,-145.5 444.39,-142 444.39,-149"/>
</a>
</g>
</g>
<!-- Node4 -->
<g id="Node000004" class="node">
<title>Node4</title>
<g id="a_Node000004"><a xlink:href="classOperationRecorder.html#a334ae0662731c03b4a767ee6c47212df" target="_top" xlink:title=" ">
<polygon fill="white" stroke="#666666" points="569.5,-211.5 453.5,-211.5 453.5,-181.5 569.5,-181.5 569.5,-211.5"/>
<text text-anchor="start" x="461.5" y="-199.5" font-family="Helvetica,sans-Serif" font-size="10.00">OperationRecorder::</text>
<text text-anchor="middle" x="511.5" y="-188.5" font-family="Helvetica,sans-Serif" font-size="10.00">sendRecordToServer</text>
</a>
</g>
</g>
<!-- Node2&#45;&gt;Node4 -->
<g id="edge3_Node000002_Node000004" class="edge">
<title>Node2&#45;&gt;Node4</title>
<g id="a_edge3_Node000002_Node000004"><a xlink:title=" ">
<path fill="none" stroke="#63b8ff" d="M355.77,-159.1C382.74,-165.62 415.25,-173.48 443.49,-180.3"/>
<polygon fill="#63b8ff" stroke="#63b8ff" points="442.75,-183.72 453.29,-182.67 444.39,-176.92 442.75,-183.72"/>
</a>
</g>
</g>
<!-- Node5 -->
<g id="Node000005" class="node">
<title>Node5</title>
<g id="a_Node000005"><a xlink:href="classOperationRecorder.html#a76e57ca1319df23bc72f4b7ed395f469" target="_top" xlink:title=" ">
<polygon fill="white" stroke="#666666" points="786.5,-163.5 672.5,-163.5 672.5,-133.5 786.5,-133.5 786.5,-163.5"/>
<text text-anchor="start" x="680.5" y="-151.5" font-family="Helvetica,sans-Serif" font-size="10.00">OperationRecorder::</text>
<text text-anchor="middle" x="729.5" y="-140.5" font-family="Helvetica,sans-Serif" font-size="10.00">buildSignedPayload</text>
</a>
</g>
</g>
<!-- Node4&#45;&gt;Node5 -->
<g id="edge4_Node000004_Node000005" class="edge">
<title>Node4&#45;&gt;Node5</title>
<g id="a_edge4_Node000004_Node000005"><a xlink:title=" ">
<path fill="none" stroke="#63b8ff" d="M569.53,-183.83C598.06,-177.49 632.73,-169.78 662.41,-163.19"/>
<polygon fill="#63b8ff" stroke="#63b8ff" points="663.27,-166.58 672.27,-161 661.75,-159.75 663.27,-166.58"/>
</a>
</g>
</g>
<!-- Node7 -->
<g id="Node000007" class="node">
<title>Node7</title>
<g id="a_Node000007"><a xlink:href="classOperationRecorder.html#a20308fd183b5b0dbe00ce89fcc0b823e" target="_top" xlink:title=" ">
<polygon fill="white" stroke="#666666" points="786.5,-307.5 672.5,-307.5 672.5,-277.5 786.5,-277.5 786.5,-307.5"/>
<text text-anchor="start" x="680.5" y="-295.5" font-family="Helvetica,sans-Serif" font-size="10.00">OperationRecorder::</text>
<text text-anchor="middle" x="729.5" y="-284.5" font-family="Helvetica,sans-Serif" font-size="10.00">connectTcpSocket</text>
</a>
</g>
</g>
<!-- Node4&#45;&gt;Node7 -->
<g id="edge6_Node000004_Node000007" class="edge">
<title>Node4&#45;&gt;Node7</title>
<g id="a_edge6_Node000004_Node000007"><a xlink:title=" ">
<path fill="none" stroke="#63b8ff" d="M534.51,-211.67C558.69,-227.75 599.13,-252.92 637,-268.5 645.06,-271.81 653.7,-274.79 662.34,-277.41"/>
<polygon fill="#63b8ff" stroke="#63b8ff" points="661.49,-280.81 672.07,-280.24 663.44,-274.09 661.49,-280.81"/>
</a>
</g>
</g>
<!-- Node10 -->
<g id="Node000010" class="node">
<title>Node10</title>
<g id="a_Node000010"><a xlink:href="classOperationRecorder.html#a507cbb2e0e5b6babc09e31dc8127f101" target="_top" xlink:title=" ">
<polygon fill="white" stroke="#666666" points="799.5,-259.5 659.5,-259.5 659.5,-229.5 799.5,-229.5 799.5,-259.5"/>
<text text-anchor="start" x="667.5" y="-247.5" font-family="Helvetica,sans-Serif" font-size="10.00">OperationRecorder::</text>
<text text-anchor="middle" x="729.5" y="-236.5" font-family="Helvetica,sans-Serif" font-size="10.00">enqueueRecordIfPossible</text>
</a>
</g>
</g>
<!-- Node4&#45;&gt;Node10 -->
<g id="edge9_Node000004_Node000010" class="edge">
<title>Node4&#45;&gt;Node10</title>
<g id="a_edge9_Node000004_Node000010"><a xlink:title=" ">
<path fill="none" stroke="#63b8ff" d="M569.53,-209.17C594.47,-214.72 624.11,-221.3 651,-227.28"/>
<polygon fill="#63b8ff" stroke="#63b8ff" points="650.25,-230.7 660.77,-229.45 651.76,-223.86 650.25,-230.7"/>
</a>
</g>
</g>
<!-- Node11 -->
<g id="Node000011" class="node">
<title>Node11</title>
<g id="a_Node000011"><a xlink:href="classOperationRecorder.html#a10162fd420bca1481d62d02b4afcfa30" target="_top" xlink:title="使用示例:">
<polygon fill="white" stroke="#666666" points="786.5,-211.5 672.5,-211.5 672.5,-181.5 786.5,-181.5 786.5,-211.5"/>
<text text-anchor="start" x="680.5" y="-199.5" font-family="Helvetica,sans-Serif" font-size="10.00">OperationRecorder::</text>
<text text-anchor="middle" x="729.5" y="-188.5" font-family="Helvetica,sans-Serif" font-size="10.00">isTcpConnected</text>
</a>
</g>
</g>
<!-- Node4&#45;&gt;Node11 -->
<g id="edge10_Node000004_Node000011" class="edge">
<title>Node4&#45;&gt;Node11</title>
<g id="a_edge10_Node000004_Node000011"><a xlink:title=" ">
<path fill="none" stroke="#63b8ff" d="M569.53,-196.5C597.93,-196.5 632.43,-196.5 662.02,-196.5"/>
<polygon fill="#63b8ff" stroke="#63b8ff" points="662.27,-200 672.27,-196.5 662.27,-193 662.27,-200"/>
</a>
</g>
</g>
<!-- Node6 -->
<g id="Node000006" class="node">
<title>Node6</title>
<g id="a_Node000006"><a xlink:href="structOperationRecord.html#aae606bfdd782db1bd3fc32dbf0a814d7" target="_top" xlink:title=" ">
<polygon fill="white" stroke="#666666" points="992,-158 858,-158 858,-139 992,-139 992,-158"/>
<text text-anchor="middle" x="925" y="-146" font-family="Helvetica,sans-Serif" font-size="10.00">OperationRecord::toJson</text>
</a>
</g>
</g>
<!-- Node5&#45;&gt;Node6 -->
<g id="edge5_Node000005_Node000006" class="edge">
<title>Node5&#45;&gt;Node6</title>
<g id="a_edge5_Node000005_Node000006"><a xlink:title=" ">
<path fill="none" stroke="#63b8ff" d="M786.73,-148.5C805.72,-148.5 827.26,-148.5 847.56,-148.5"/>
<polygon fill="#63b8ff" stroke="#63b8ff" points="847.72,-152 857.72,-148.5 847.72,-145 847.72,-152"/>
</a>
</g>
</g>
<!-- Node8 -->
<g id="Node000008" class="node">
<title>Node8</title>
<g id="a_Node000008"><a xlink:href="classOperationRecorder.html#a60e73780538b8376d7e68e9cc09fe5a9" target="_top" xlink:title=" ">
<polygon fill="white" stroke="#666666" points="984.5,-283.5 865.5,-283.5 865.5,-253.5 984.5,-253.5 984.5,-283.5"/>
<text text-anchor="start" x="873.5" y="-271.5" font-family="Helvetica,sans-Serif" font-size="10.00">OperationRecorder::</text>
<text text-anchor="middle" x="925" y="-260.5" font-family="Helvetica,sans-Serif" font-size="10.00">tcpTransmissionError</text>
</a>
</g>
</g>
<!-- Node7&#45;&gt;Node8 -->
<g id="edge7_Node000007_Node000008" class="edge">
<title>Node7&#45;&gt;Node8</title>
<g id="a_edge7_Node000007_Node000008"><a xlink:title=" ">
<path fill="none" stroke="#63b8ff" d="M786.73,-285.53C808.11,-282.87 832.72,-279.82 855.15,-277.04"/>
<polygon fill="#63b8ff" stroke="#63b8ff" points="855.78,-280.49 865.27,-275.78 854.92,-273.54 855.78,-280.49"/>
</a>
</g>
</g>
<!-- Node9 -->
<g id="Node000009" class="node">
<title>Node9</title>
<g id="a_Node000009"><a xlink:href="classOperationRecorder.html#a37d0a54d4ebddd9ad4c248331f70a0e3" target="_top" xlink:title=" ">
<polygon fill="white" stroke="#666666" points="990.5,-331.5 859.5,-331.5 859.5,-301.5 990.5,-301.5 990.5,-331.5"/>
<text text-anchor="start" x="867.5" y="-319.5" font-family="Helvetica,sans-Serif" font-size="10.00">OperationRecorder::</text>
<text text-anchor="middle" x="925" y="-308.5" font-family="Helvetica,sans-Serif" font-size="10.00">validateTransportPolicy</text>
</a>
</g>
</g>
<!-- Node7&#45;&gt;Node9 -->
<g id="edge8_Node000007_Node000009" class="edge">
<title>Node7&#45;&gt;Node9</title>
<g id="a_edge8_Node000007_Node000009"><a xlink:title=" ">
<path fill="none" stroke="#63b8ff" d="M786.73,-299.47C806.29,-301.9 828.55,-304.66 849.37,-307.24"/>
<polygon fill="#63b8ff" stroke="#63b8ff" points="849.1,-310.74 859.45,-308.49 849.96,-303.79 849.1,-310.74"/>
</a>
</g>
</g>
<!-- Node13 -->
<g id="Node000013" class="node">
<title>Node13</title>
<g id="a_Node000013"><a xlink:href="classAGVModbusManager.html#a1e0321a0cc3e28ba495cabbc83b193d4" target="_top" xlink:title="功能: 返回当前网络连接状态。 如何使用: 用于 UI 指示或决定是否发起读写操作。 如何修改: 若支持多设备，应提供设备级别的状态查询接口。">
<polygon fill="white" stroke="#666666" points="822,-19 637,-19 637,0 822,0 822,-19"/>
<text text-anchor="middle" x="729.5" y="-7" font-family="Helvetica,sans-Serif" font-size="10.00">AGVModbusManager::isConnected</text>
</a>
</g>
</g>
<!-- Node12&#45;&gt;Node13 -->
<g id="edge12_Node000012_Node000013" class="edge">
<title>Node12&#45;&gt;Node13</title>
<g id="a_edge12_Node000012_Node000013"><a xlink:title=" ">
<path fill="none" stroke="#63b8ff" d="M318.87,-65.94C342.56,-54.75 384.16,-36.73 422,-28.5 489.22,-13.88 566.55,-9.17 626.71,-8.1"/>
<polygon fill="#63b8ff" stroke="#63b8ff" points="627.03,-11.59 636.98,-7.95 626.93,-4.59 627.03,-11.59"/>
</a>
</g>
</g>
<!-- Node14 -->
<g id="Node000014" class="node">
<title>Node14</title>
<g id="a_Node000014"><a xlink:href="classMainWindow.html#a0571dda89e7bcba308da02c1160fcb57" target="_top" xlink:title=" ">
<polygon fill="white" stroke="#666666" points="596,-108 427,-108 427,-89 596,-89 596,-108"/>
<text text-anchor="middle" x="511.5" y="-96" font-family="Helvetica,sans-Serif" font-size="10.00">MainWindow::isFeatureEnabled</text>
</a>
</g>
</g>
<!-- Node12&#45;&gt;Node14 -->
<g id="edge13_Node000012_Node000014" class="edge">
<title>Node12&#45;&gt;Node14</title>
<g id="a_edge13_Node000012_Node000014"><a xlink:title=" ">
<path fill="none" stroke="#63b8ff" d="M386.24,-84.95C396.29,-86.05 406.59,-87.17 416.74,-88.28"/>
<polygon fill="#63b8ff" stroke="#63b8ff" points="416.5,-91.77 426.82,-89.38 417.26,-84.82 416.5,-91.77"/>
</a>
</g>
</g>
<!-- Node18 -->
<g id="Node000018" class="node">
<title>Node18</title>
<g id="a_Node000018"><a xlink:href="classAGVModbusManager.html#aec03e5a2f2710570382b6063a1ffe826" target="_top" xlink:title="功能: 写单个寄存器到 AGV 设备。 如何使用: 提供地址和值，调用后观察 writeCompleted 或 errorOccurred 信号以获取结果。 如何修改: 若需事务进行多寄存器写入，请使用...">
<polygon fill="white" stroke="#666666" points="601,-67.5 422,-67.5 422,-37.5 601,-37.5 601,-67.5"/>
<text text-anchor="start" x="430" y="-55.5" font-family="Helvetica,sans-Serif" font-size="10.00">AGVModbusManager::writeSingle</text>
<text text-anchor="middle" x="511.5" y="-44.5" font-family="Helvetica,sans-Serif" font-size="10.00">Register</text>
</a>
</g>
</g>
<!-- Node12&#45;&gt;Node18 -->
<g id="edge17_Node000012_Node000018" class="edge">
<title>Node12&#45;&gt;Node18</title>
<g id="a_edge17_Node000012_Node000018"><a xlink:title=" ">
<path fill="none" stroke="#63b8ff" d="M386.24,-66.05C394.65,-65.13 403.23,-64.19 411.75,-63.26"/>
<polygon fill="#63b8ff" stroke="#63b8ff" points="412.15,-66.74 421.71,-62.18 411.39,-59.78 412.15,-66.74"/>
</a>
</g>
</g>
<!-- Node15 -->
<g id="Node000015" class="node">
<title>Node15</title>
<g id="a_Node000015"><a xlink:href="classFeatureSwitchManager.html#af4a8c4a54a17fdddbdb9eece6b8da932" target="_top" xlink:title="组合检查：先检查所属大功能，再检查小功能（若提供）">
<polygon fill="white" stroke="#666666" points="793.5,-115.5 665.5,-115.5 665.5,-85.5 793.5,-85.5 793.5,-115.5"/>
<text text-anchor="start" x="673.5" y="-103.5" font-family="Helvetica,sans-Serif" font-size="10.00">FeatureSwitchManager</text>
<text text-anchor="middle" x="729.5" y="-92.5" font-family="Helvetica,sans-Serif" font-size="10.00">::isFeatureEnabled</text>
</a>
</g>
</g>
<!-- Node14&#45;&gt;Node15 -->
<g id="edge14_Node000014_Node000015" class="edge">
<title>Node14&#45;&gt;Node15</title>
<g id="a_edge14_Node000014_Node000015"><a xlink:title=" ">
<path fill="none" stroke="#63b8ff" d="M596.01,-99.27C615.53,-99.45 636.18,-99.65 655.22,-99.82"/>
<polygon fill="#63b8ff" stroke="#63b8ff" points="655.28,-103.32 665.31,-99.91 655.35,-96.32 655.28,-103.32"/>
</a>
</g>
</g>
<!-- Node16 -->
<g id="Node000016" class="node">
<title>Node16</title>
<g id="a_Node000016"><a xlink:href="classFeatureSwitchManager.html#aa558b5e5c8c59422920a0006cc304f0e" target="_top" xlink:title="检查某个大功能是否可用">
<polygon fill="white" stroke="#666666" points="989,-69.5 861,-69.5 861,-39.5 989,-39.5 989,-69.5"/>
<text text-anchor="start" x="869" y="-57.5" font-family="Helvetica,sans-Serif" font-size="10.00">FeatureSwitchManager</text>
<text text-anchor="middle" x="925" y="-46.5" font-family="Helvetica,sans-Serif" font-size="10.00">::isBigFeatureEnabled</text>
</a>
</g>
</g>
<!-- Node15&#45;&gt;Node16 -->
<g id="edge15_Node000015_Node000016" class="edge">
<title>Node15&#45;&gt;Node16</title>
<g id="a_edge15_Node000015_Node000016"><a xlink:title=" ">
<path fill="none" stroke="#63b8ff" d="M793.59,-85.5C812,-81.13 832.26,-76.31 851.22,-71.8"/>
<polygon fill="#63b8ff" stroke="#63b8ff" points="852.07,-75.2 860.99,-69.48 850.46,-68.39 852.07,-75.2"/>
</a>
</g>
</g>
<!-- Node17 -->
<g id="Node000017" class="node">
<title>Node17</title>
<g id="a_Node000017"><a xlink:href="classFeatureSwitchManager.html#a34a3f96557e81a21f547065c8ce2608b" target="_top" xlink:title="检查某个小功能是否可用">
<polygon fill="white" stroke="#666666" points="992,-117.5 858,-117.5 858,-87.5 992,-87.5 992,-117.5"/>
<text text-anchor="start" x="866" y="-105.5" font-family="Helvetica,sans-Serif" font-size="10.00">FeatureSwitchManager</text>
<text text-anchor="middle" x="925" y="-94.5" font-family="Helvetica,sans-Serif" font-size="10.00">::isSmallFeatureEnabled</text>
</a>
</g>
</g>
<!-- Node15&#45;&gt;Node17 -->
<g id="edge16_Node000015_Node000017" class="edge">
<title>Node15&#45;&gt;Node17</title>
<g id="a_edge16_Node000015_Node000017"><a xlink:title=" ">
<path fill="none" stroke="#63b8ff" d="M793.59,-101.15C810.74,-101.33 829.5,-101.52 847.31,-101.71"/>
<polygon fill="#63b8ff" stroke="#63b8ff" points="847.63,-105.21 857.67,-101.81 847.7,-98.21 847.63,-105.21"/>
</a>
</g>
</g>
<!-- Node18&#45;&gt;Node13 -->
<g id="edge19_Node000018_Node000013" class="edge">
<title>Node18&#45;&gt;Node13</title>
<g id="a_edge19_Node000018_Node000013"><a xlink:title=" ">
<path fill="none" stroke="#63b8ff" d="M588.05,-37.46C615.22,-32.05 645.41,-26.04 670.82,-20.98"/>
<polygon fill="#63b8ff" stroke="#63b8ff" points="671.54,-24.41 680.67,-19.02 670.18,-17.54 671.54,-24.41"/>
</a>
</g>
</g>
<!-- Node19 -->
<g id="Node000019" class="node">
<title>Node19</title>
<g id="a_Node000019"><a xlink:href="classAGVModbusManager.html#a3635763c93cd21764900cab25136b890" target="_top" xlink:title=" ">
<polygon fill="white" stroke="#666666" points="807,-67.5 652,-67.5 652,-37.5 807,-37.5 807,-67.5"/>
<text text-anchor="start" x="660" y="-55.5" font-family="Helvetica,sans-Serif" font-size="10.00">AGVModbusManager::create</text>
<text text-anchor="middle" x="729.5" y="-44.5" font-family="Helvetica,sans-Serif" font-size="10.00">WriteRequest</text>
</a>
</g>
</g>
<!-- Node18&#45;&gt;Node19 -->
<g id="edge18_Node000018_Node000019" class="edge">
<title>Node18&#45;&gt;Node19</title>
<g id="a_edge18_Node000018_Node000019"><a xlink:title=" ">
<path fill="none" stroke="#63b8ff" d="M601.29,-52.5C614.64,-52.5 628.4,-52.5 641.71,-52.5"/>
<polygon fill="#63b8ff" stroke="#63b8ff" points="641.79,-56 651.79,-52.5 641.79,-49 641.79,-56"/>
</a>
</g>
</g>
</g>
</svg>
