<?xml version="1.0" encoding="UTF-8" standalone="no"?>
<!DOCTYPE svg PUBLIC "-//W3C//DTD SVG 1.1//EN"
 "http://www.w3.org/Graphics/SVG/1.1/DTD/svg11.dtd">
<!-- Generated by graphviz version 2.43.0 (0)
 -->
<!-- Title: TechSliderEdit::valueChangedWithRecord Pages: 1 -->
<svg width="956pt" height="223pt"
 viewBox="0.00 0.00 956.00 223.00" xmlns="http://www.w3.org/2000/svg" xmlns:xlink="http://www.w3.org/1999/xlink">
<g id="graph0" class="graph" transform="scale(1 1) rotate(0) translate(4 219)">
<title>TechSliderEdit::valueChangedWithRecord</title>
<!-- Node1 -->
<g id="Node000001" class="node">
<title>Node1</title>
<g id="a_Node000001"><a xlink:title=" ">
<polygon fill="#999999" stroke="#666666" points="948,-126 787,-126 787,-96 948,-96 948,-126"/>
<text text-anchor="start" x="795" y="-114" font-family="Helvetica,sans-Serif" font-size="10.00">TechSliderEdit::valueChanged</text>
<text text-anchor="middle" x="867.5" y="-103" font-family="Helvetica,sans-Serif" font-size="10.00">WithRecord</text>
</a>
</g>
</g>
<!-- Node2 -->
<g id="Node000002" class="node">
<title>Node2</title>
<g id="a_Node000002"><a xlink:href="classMainWindow.html#a93822c07c826ce603c023160191eabd0" target="_top" xlink:title="连接历史记录信号与槽">
<polygon fill="white" stroke="#666666" points="750.5,-214 593.5,-214 593.5,-184 750.5,-184 750.5,-214"/>
<text text-anchor="start" x="601.5" y="-202" font-family="Helvetica,sans-Serif" font-size="10.00">MainWindow::connectRecord</text>
<text text-anchor="middle" x="672" y="-191" font-family="Helvetica,sans-Serif" font-size="10.00">Signals</text>
</a>
</g>
</g>
<!-- Node1&#45;&gt;Node2 -->
<g id="edge1_Node000001_Node000002" class="edge">
<title>Node1&#45;&gt;Node2</title>
<g id="a_edge1_Node000001_Node000002"><a xlink:title=" ">
<path fill="none" stroke="#63b8ff" d="M832.57,-131.2C809.95,-144.17 779.29,-160.8 751,-173 741.96,-176.9 732.12,-180.59 722.58,-183.89"/>
<polygon fill="#63b8ff" stroke="#63b8ff" points="834.53,-134.11 841.43,-126.07 831.02,-128.05 834.53,-134.11"/>
</a>
</g>
</g>
<!-- Node5 -->
<g id="Node000005" class="node">
<title>Node5</title>
<g id="a_Node000005"><a xlink:href="classMainWindow.html#a3df3aeeec521f64af190b59a4580879f" target="_top" xlink:title="初始化滑块编辑 UI">
<polygon fill="white" stroke="#666666" points="751,-163.5 593,-163.5 593,-144.5 751,-144.5 751,-163.5"/>
<text text-anchor="middle" x="672" y="-151.5" font-family="Helvetica,sans-Serif" font-size="10.00">MainWindow::initSliderEditUI</text>
</a>
</g>
</g>
<!-- Node1&#45;&gt;Node5 -->
<g id="edge4_Node000001_Node000005" class="edge">
<title>Node1&#45;&gt;Node5</title>
<g id="a_edge4_Node000001_Node000005"><a xlink:title=" ">
<path fill="none" stroke="#63b8ff" d="M789,-128.22C764.07,-133.76 737.35,-139.7 715.85,-144.48"/>
<polygon fill="#63b8ff" stroke="#63b8ff" points="789.82,-131.63 798.82,-126.04 788.3,-124.79 789.82,-131.63"/>
</a>
</g>
</g>
<!-- Node8 -->
<g id="Node000008" class="node">
<title>Node8</title>
<g id="a_Node000008"><a xlink:href="classTechSliderEdit.html#a57a44d7b0f67e653251e06693126c9d0" target="_top" xlink:title=" ">
<polygon fill="white" stroke="#666666" points="743,-126 601,-126 601,-96 743,-96 743,-126"/>
<text text-anchor="start" x="609" y="-114" font-family="Helvetica,sans-Serif" font-size="10.00">TechSliderEdit::onLineEdit</text>
<text text-anchor="middle" x="672" y="-103" font-family="Helvetica,sans-Serif" font-size="10.00">EditingFinished</text>
</a>
</g>
</g>
<!-- Node1&#45;&gt;Node8 -->
<g id="edge8_Node000001_Node000008" class="edge">
<title>Node1&#45;&gt;Node8</title>
<g id="a_edge8_Node000001_Node000008"><a xlink:title=" ">
<path fill="none" stroke="#63b8ff" d="M776.7,-111C765.47,-111 754.12,-111 743.25,-111"/>
<polygon fill="#63b8ff" stroke="#63b8ff" points="776.96,-114.5 786.96,-111 776.96,-107.5 776.96,-114.5"/>
</a>
</g>
</g>
<!-- Node11 -->
<g id="Node000011" class="node">
<title>Node11</title>
<g id="a_Node000011"><a xlink:href="classTechSliderEdit.html#a523451e60070cadaff4b4c214fa712a6" target="_top" xlink:title=" ">
<polygon fill="white" stroke="#666666" points="739,-78 605,-78 605,-48 739,-48 739,-78"/>
<text text-anchor="start" x="613" y="-66" font-family="Helvetica,sans-Serif" font-size="10.00">TechSliderEdit::onPreset</text>
<text text-anchor="middle" x="672" y="-55" font-family="Helvetica,sans-Serif" font-size="10.00">ButtonClicked</text>
</a>
</g>
</g>
<!-- Node1&#45;&gt;Node11 -->
<g id="edge11_Node000001_Node000011" class="edge">
<title>Node1&#45;&gt;Node11</title>
<g id="a_edge11_Node000001_Node000011"><a xlink:title=" ">
<path fill="none" stroke="#63b8ff" d="M795.91,-93.49C775.44,-88.41 753.27,-82.91 733.48,-78"/>
<polygon fill="#63b8ff" stroke="#63b8ff" points="795.26,-96.93 805.81,-95.94 796.94,-90.14 795.26,-96.93"/>
</a>
</g>
</g>
<!-- Node12 -->
<g id="Node000012" class="node">
<title>Node12</title>
<g id="a_Node000012"><a xlink:href="classTechSliderEdit.html#ad2f8193d4f07c0554214f2ebfa6cc23c" target="_top" xlink:title=" ">
<polygon fill="white" stroke="#666666" points="737.5,-30 606.5,-30 606.5,0 737.5,0 737.5,-30"/>
<text text-anchor="start" x="614.5" y="-18" font-family="Helvetica,sans-Serif" font-size="10.00">TechSliderEdit::onSlider</text>
<text text-anchor="middle" x="672" y="-7" font-family="Helvetica,sans-Serif" font-size="10.00">ValueChanged</text>
</a>
</g>
</g>
<!-- Node1&#45;&gt;Node12 -->
<g id="edge13_Node000001_Node000012" class="edge">
<title>Node1&#45;&gt;Node12</title>
<g id="a_edge13_Node000001_Node000012"><a xlink:title=" ">
<path fill="none" stroke="#63b8ff" d="M837.25,-89.79C814.59,-74.11 781.94,-53.11 751,-39 743.78,-35.71 735.99,-32.71 728.22,-30.03"/>
<polygon fill="#63b8ff" stroke="#63b8ff" points="835.52,-92.85 845.72,-95.73 839.54,-87.12 835.52,-92.85"/>
</a>
</g>
</g>
<!-- Node3 -->
<g id="Node000003" class="node">
<title>Node3</title>
<g id="a_Node000003"><a xlink:href="classMainWindow.html#ad57bfa690bd649e9b5b43552d4f5673c" target="_top" xlink:title="初始化业务子系统（通信、线程、样式、控制）">
<polygon fill="white" stroke="#666666" points="338,-215 189,-215 189,-185 338,-185 338,-215"/>
<text text-anchor="start" x="197" y="-203" font-family="Helvetica,sans-Serif" font-size="10.00">MainWindow::initializeCore</text>
<text text-anchor="middle" x="263.5" y="-192" font-family="Helvetica,sans-Serif" font-size="10.00">Subsystems</text>
</a>
</g>
</g>
<!-- Node2&#45;&gt;Node3 -->
<g id="edge2_Node000002_Node000003" class="edge">
<title>Node2&#45;&gt;Node3</title>
<g id="a_edge2_Node000002_Node000003"><a xlink:title=" ">
<path fill="none" stroke="#63b8ff" d="M582.98,-199.22C509.8,-199.4 406.86,-199.65 338.03,-199.82"/>
<polygon fill="#63b8ff" stroke="#63b8ff" points="583.11,-202.72 593.1,-199.19 583.1,-195.72 583.11,-202.72"/>
</a>
</g>
</g>
<!-- Node4 -->
<g id="Node000004" class="node">
<title>Node4</title>
<g id="a_Node000004"><a xlink:href="classMainWindow.html#a996c5a2b6f77944776856f08ec30858d" target="_top" xlink:title="构造 MainWindow 并初始化内部状态与 UI">
<polygon fill="white" stroke="#666666" points="148,-185.5 0,-185.5 0,-166.5 148,-166.5 148,-185.5"/>
<text text-anchor="middle" x="74" y="-173.5" font-family="Helvetica,sans-Serif" font-size="10.00">MainWindow::MainWindow</text>
</a>
</g>
</g>
<!-- Node3&#45;&gt;Node4 -->
<g id="edge3_Node000003_Node000004" class="edge">
<title>Node3&#45;&gt;Node4</title>
<g id="a_edge3_Node000003_Node000004"><a xlink:title=" ">
<path fill="none" stroke="#63b8ff" d="M178.76,-189.28C168.52,-187.97 158.12,-186.64 148.05,-185.35"/>
<polygon fill="#63b8ff" stroke="#63b8ff" points="178.57,-192.79 188.93,-190.58 179.46,-185.84 178.57,-192.79"/>
</a>
</g>
</g>
<!-- Node6 -->
<g id="Node000006" class="node">
<title>Node6</title>
<g id="a_Node000006"><a xlink:href="classMainWindow.html#a9388168e83016e31d2668a501450bcac" target="_top" xlink:title="初始化窗口 UI（内部）">
<polygon fill="white" stroke="#666666" points="523.5,-162.5 412.5,-162.5 412.5,-143.5 523.5,-143.5 523.5,-162.5"/>
<text text-anchor="middle" x="468" y="-150.5" font-family="Helvetica,sans-Serif" font-size="10.00">MainWindow::initUI</text>
</a>
</g>
</g>
<!-- Node5&#45;&gt;Node6 -->
<g id="edge5_Node000005_Node000006" class="edge">
<title>Node5&#45;&gt;Node6</title>
<g id="a_edge5_Node000005_Node000006"><a xlink:title=" ">
<path fill="none" stroke="#63b8ff" d="M582.8,-153.56C562.72,-153.46 541.95,-153.36 523.75,-153.27"/>
<polygon fill="#63b8ff" stroke="#63b8ff" points="582.88,-157.06 592.9,-153.61 582.92,-150.06 582.88,-157.06"/>
</a>
</g>
</g>
<!-- Node7 -->
<g id="Node000007" class="node">
<title>Node7</title>
<g id="a_Node000007"><a xlink:href="classMainWindow.html#a0cb4955bff598ad95110e9525a52214d" target="_top" xlink:title="初始化核心页面和基础 UI 模块">
<polygon fill="white" stroke="#666666" points="338,-167 189,-167 189,-137 338,-137 338,-167"/>
<text text-anchor="start" x="197" y="-155" font-family="Helvetica,sans-Serif" font-size="10.00">MainWindow::initializeCore</text>
<text text-anchor="middle" x="263.5" y="-144" font-family="Helvetica,sans-Serif" font-size="10.00">PagesAndUi</text>
</a>
</g>
</g>
<!-- Node6&#45;&gt;Node7 -->
<g id="edge6_Node000006_Node000007" class="edge">
<title>Node6&#45;&gt;Node7</title>
<g id="a_edge6_Node000006_Node000007"><a xlink:title=" ">
<path fill="none" stroke="#63b8ff" d="M402.33,-152.68C381.9,-152.58 359.17,-152.47 338.16,-152.36"/>
<polygon fill="#63b8ff" stroke="#63b8ff" points="402.45,-156.18 412.47,-152.73 402.48,-149.18 402.45,-156.18"/>
</a>
</g>
</g>
<!-- Node7&#45;&gt;Node4 -->
<g id="edge7_Node000007_Node000004" class="edge">
<title>Node7&#45;&gt;Node4</title>
<g id="a_edge7_Node000007_Node000004"><a xlink:title=" ">
<path fill="none" stroke="#63b8ff" d="M178.76,-162.72C168.52,-164.03 158.12,-165.36 148.05,-166.65"/>
<polygon fill="#63b8ff" stroke="#63b8ff" points="179.46,-166.16 188.93,-161.42 178.57,-159.21 179.46,-166.16"/>
</a>
</g>
</g>
<!-- Node9 -->
<g id="Node000009" class="node">
<title>Node9</title>
<g id="a_Node000009"><a xlink:href="classTechSliderEdit.html#a605c2b2596c5ea34105eb11470bc1f41" target="_top" xlink:title=" ">
<polygon fill="white" stroke="#666666" points="557,-72.5 379,-72.5 379,-53.5 557,-53.5 557,-72.5"/>
<text text-anchor="middle" x="468" y="-60.5" font-family="Helvetica,sans-Serif" font-size="10.00">TechSliderEdit::setupConnections</text>
</a>
</g>
</g>
<!-- Node8&#45;&gt;Node9 -->
<g id="edge9_Node000008_Node000009" class="edge">
<title>Node8&#45;&gt;Node9</title>
<g id="a_edge9_Node000008_Node000009"><a xlink:title=" ">
<path fill="none" stroke="#63b8ff" d="M597.67,-93.58C567.84,-86.49 534.51,-78.57 509.25,-72.56"/>
<polygon fill="#63b8ff" stroke="#63b8ff" points="597.1,-97.04 607.64,-95.94 598.72,-90.23 597.1,-97.04"/>
</a>
</g>
</g>
<!-- Node10 -->
<g id="Node000010" class="node">
<title>Node10</title>
<g id="a_Node000010"><a xlink:href="classTechSliderEdit.html#a94e81a0fe9bd2fa6c8b4bab981b9631a" target="_top" xlink:title="构造 TechSliderEdit 控件">
<polygon fill="white" stroke="#666666" points="343,-72.5 184,-72.5 184,-53.5 343,-53.5 343,-72.5"/>
<text text-anchor="middle" x="263.5" y="-60.5" font-family="Helvetica,sans-Serif" font-size="10.00">TechSliderEdit::TechSliderEdit</text>
</a>
</g>
</g>
<!-- Node9&#45;&gt;Node10 -->
<g id="edge10_Node000009_Node000010" class="edge">
<title>Node9&#45;&gt;Node10</title>
<g id="a_edge10_Node000009_Node000010"><a xlink:title=" ">
<path fill="none" stroke="#63b8ff" d="M368.75,-63C360.18,-63 351.59,-63 343.22,-63"/>
<polygon fill="#63b8ff" stroke="#63b8ff" points="368.77,-66.5 378.77,-63 368.77,-59.5 368.77,-66.5"/>
</a>
</g>
</g>
<!-- Node11&#45;&gt;Node9 -->
<g id="edge12_Node000011_Node000009" class="edge">
<title>Node11&#45;&gt;Node9</title>
<g id="a_edge12_Node000011_Node000009"><a xlink:title=" ">
<path fill="none" stroke="#63b8ff" d="M594.74,-63C582.52,-63 569.79,-63 557.32,-63"/>
<polygon fill="#63b8ff" stroke="#63b8ff" points="594.86,-66.5 604.86,-63 594.86,-59.5 594.86,-66.5"/>
</a>
</g>
</g>
<!-- Node12&#45;&gt;Node9 -->
<g id="edge14_Node000012_Node000009" class="edge">
<title>Node12&#45;&gt;Node9</title>
<g id="a_edge14_Node000012_Node000009"><a xlink:title=" ">
<path fill="none" stroke="#63b8ff" d="M597.67,-32.42C567.84,-39.51 534.51,-47.43 509.25,-53.44"/>
<polygon fill="#63b8ff" stroke="#63b8ff" points="598.72,-35.77 607.64,-30.06 597.1,-28.96 598.72,-35.77"/>
</a>
</g>
</g>
</g>
</svg>
