<?xml version="1.0" encoding="UTF-8" standalone="no"?>
<!DOCTYPE svg PUBLIC "-//W3C//DTD SVG 1.1//EN"
 "http://www.w3.org/Graphics/SVG/1.1/DTD/svg11.dtd">
<!-- Generated by graphviz version 2.43.0 (0)
 -->
<!-- Title: ModbusTCPClient::writeMultipleRegisters Pages: 1 -->
<svg width="383pt" height="76pt"
 viewBox="0.00 0.00 383.00 75.50" xmlns="http://www.w3.org/2000/svg" xmlns:xlink="http://www.w3.org/1999/xlink">
<g id="graph0" class="graph" transform="scale(1 1) rotate(0) translate(4 71.5)">
<title>ModbusTCPClient::writeMultipleRegisters</title>
<!-- Node1 -->
<g id="Node000001" class="node">
<title>Node1</title>
<g id="a_Node000001"><a xlink:title="使用示例:">
<polygon fill="#999999" stroke="#666666" points="172,-45.5 0,-45.5 0,-15.5 172,-15.5 172,-45.5"/>
<text text-anchor="start" x="8" y="-33.5" font-family="Helvetica,sans-Serif" font-size="10.00">ModbusTCPClient::writeMultiple</text>
<text text-anchor="middle" x="86" y="-22.5" font-family="Helvetica,sans-Serif" font-size="10.00">Registers</text>
</a>
</g>
</g>
<!-- Node2 -->
<g id="Node000002" class="node">
<title>Node2</title>
<g id="a_Node000002"><a xlink:href="classModbusTCPClient.html#a9096b3c8a0a935e9f7e5e3c6ca5113cc" target="_top" xlink:title=" ">
<polygon fill="white" stroke="#666666" points="373.5,-67.5 209.5,-67.5 209.5,-37.5 373.5,-37.5 373.5,-67.5"/>
<text text-anchor="start" x="217.5" y="-55.5" font-family="Helvetica,sans-Serif" font-size="10.00">ModbusTCPClient::createWrite</text>
<text text-anchor="middle" x="291.5" y="-44.5" font-family="Helvetica,sans-Serif" font-size="10.00">MultipleRequest</text>
</a>
</g>
</g>
<!-- Node1&#45;&gt;Node2 -->
<g id="edge1_Node000001_Node000002" class="edge">
<title>Node1&#45;&gt;Node2</title>
<g id="a_edge1_Node000001_Node000002"><a xlink:title=" ">
<path fill="none" stroke="#63b8ff" d="M172.12,-39.7C181.07,-40.67 190.18,-41.65 199.19,-42.63"/>
<polygon fill="#63b8ff" stroke="#63b8ff" points="198.98,-46.13 209.3,-43.72 199.73,-39.17 198.98,-46.13"/>
</a>
</g>
</g>
<!-- Node3 -->
<g id="Node000003" class="node">
<title>Node3</title>
<g id="a_Node000003"><a xlink:href="classModbusTCPClient.html#ac0eb40bf43e015281059b0144a928675" target="_top" xlink:title="查询连接状态">
<polygon fill="white" stroke="#666666" points="375,-19 208,-19 208,0 375,0 375,-19"/>
<text text-anchor="middle" x="291.5" y="-7" font-family="Helvetica,sans-Serif" font-size="10.00">ModbusTCPClient::isConnected</text>
</a>
</g>
</g>
<!-- Node1&#45;&gt;Node3 -->
<g id="edge2_Node000001_Node000003" class="edge">
<title>Node1&#45;&gt;Node3</title>
<g id="a_edge2_Node000001_Node000003"><a xlink:title=" ">
<path fill="none" stroke="#63b8ff" d="M172.12,-21.72C180.66,-20.84 189.35,-19.94 197.95,-19.05"/>
<polygon fill="#63b8ff" stroke="#63b8ff" points="198.41,-22.52 208,-18.01 197.69,-15.56 198.41,-22.52"/>
</a>
</g>
</g>
</g>
</svg>
