<?xml version="1.0" encoding="UTF-8" standalone="no"?>
<!DOCTYPE svg PUBLIC "-//W3C//DTD SVG 1.1//EN"
 "http://www.w3.org/Graphics/SVG/1.1/DTD/svg11.dtd">
<!-- Generated by graphviz version 2.43.0 (0)
 -->
<!-- Title: TechSliderLabel::setTechBlueStyle Pages: 1 -->
<svg width="725pt" height="134pt"
 viewBox="0.00 0.00 725.00 134.00" xmlns="http://www.w3.org/2000/svg" xmlns:xlink="http://www.w3.org/1999/xlink">
<g id="graph0" class="graph" transform="scale(1 1) rotate(0) translate(4 130)">
<title>TechSliderLabel::setTechBlueStyle</title>
<!-- Node1 -->
<g id="Node000001" class="node">
<title>Node1</title>
<g id="a_Node000001"><a xlink:title="应用内置科技蓝主题样式">
<polygon fill="#999999" stroke="#666666" points="135,-78 0,-78 0,-48 135,-48 135,-78"/>
<text text-anchor="start" x="8" y="-66" font-family="Helvetica,sans-Serif" font-size="10.00">TechSliderLabel::setTech</text>
<text text-anchor="middle" x="67.5" y="-55" font-family="Helvetica,sans-Serif" font-size="10.00">BlueStyle</text>
</a>
</g>
</g>
<!-- Node2 -->
<g id="Node000002" class="node">
<title>Node2</title>
<g id="a_Node000002"><a xlink:href="classTechSliderLabel.html#adb65ffc9ea4492201db628a6ed5ae7c9" target="_top" xlink:title="设置发光颜色（用于高亮/边缘发光）">
<polygon fill="white" stroke="#666666" points="322,-126 184,-126 184,-96 322,-96 322,-126"/>
<text text-anchor="start" x="192" y="-114" font-family="Helvetica,sans-Serif" font-size="10.00">TechSliderLabel::setGlow</text>
<text text-anchor="middle" x="253" y="-103" font-family="Helvetica,sans-Serif" font-size="10.00">Color</text>
</a>
</g>
</g>
<!-- Node1&#45;&gt;Node2 -->
<g id="edge1_Node000001_Node000002" class="edge">
<title>Node1&#45;&gt;Node2</title>
<g id="a_edge1_Node000001_Node000002"><a xlink:title=" ">
<path fill="none" stroke="#63b8ff" d="M126.06,-78.06C144.67,-82.93 165.48,-88.37 184.74,-93.41"/>
<polygon fill="#63b8ff" stroke="#63b8ff" points="184.09,-96.85 194.65,-96 185.86,-90.08 184.09,-96.85"/>
</a>
</g>
</g>
<!-- Node5 -->
<g id="Node000005" class="node">
<title>Node5</title>
<g id="a_Node000005"><a xlink:href="classTechSliderLabel.html#a4f95aaaf43bf112f85d6f35b842e5788" target="_top" xlink:title="设置主颜色（滑块/刻度主色）">
<polygon fill="white" stroke="#666666" points="329,-78 177,-78 177,-48 329,-48 329,-78"/>
<text text-anchor="start" x="185" y="-66" font-family="Helvetica,sans-Serif" font-size="10.00">TechSliderLabel::setPrimary</text>
<text text-anchor="middle" x="253" y="-55" font-family="Helvetica,sans-Serif" font-size="10.00">Color</text>
</a>
</g>
</g>
<!-- Node1&#45;&gt;Node5 -->
<g id="edge4_Node000001_Node000005" class="edge">
<title>Node1&#45;&gt;Node5</title>
<g id="a_edge4_Node000001_Node000005"><a xlink:title=" ">
<path fill="none" stroke="#63b8ff" d="M135.01,-63C145.27,-63 155.98,-63 166.59,-63"/>
<polygon fill="#63b8ff" stroke="#63b8ff" points="166.7,-66.5 176.7,-63 166.7,-59.5 166.7,-66.5"/>
</a>
</g>
</g>
<!-- Node6 -->
<g id="Node000006" class="node">
<title>Node6</title>
<g id="a_Node000006"><a xlink:href="classTechSliderLabel.html#a0674bddcd82c2c7f3ef00d188a94532c" target="_top" xlink:title="设置次要颜色（标签/文字颜色）">
<polygon fill="white" stroke="#666666" points="335,-30 171,-30 171,0 335,0 335,-30"/>
<text text-anchor="start" x="179" y="-18" font-family="Helvetica,sans-Serif" font-size="10.00">TechSliderLabel::setSecondary</text>
<text text-anchor="middle" x="253" y="-7" font-family="Helvetica,sans-Serif" font-size="10.00">Color</text>
</a>
</g>
</g>
<!-- Node1&#45;&gt;Node6 -->
<g id="edge6_Node000001_Node000006" class="edge">
<title>Node1&#45;&gt;Node6</title>
<g id="a_edge6_Node000001_Node000006"><a xlink:title=" ">
<path fill="none" stroke="#63b8ff" d="M126.06,-47.94C144.67,-43.07 165.48,-37.63 184.74,-32.59"/>
<polygon fill="#63b8ff" stroke="#63b8ff" points="185.86,-35.92 194.65,-30 184.09,-29.15 185.86,-35.92"/>
</a>
</g>
</g>
<!-- Node3 -->
<g id="Node000003" class="node">
<title>Node3</title>
<g id="a_Node000003"><a xlink:href="classTechSliderLabel.html#af0ebb1447f625a86980ae1f48b97835c" target="_top" xlink:title=" ">
<polygon fill="white" stroke="#666666" points="518,-78 371,-78 371,-48 518,-48 518,-78"/>
<text text-anchor="start" x="379" y="-66" font-family="Helvetica,sans-Serif" font-size="10.00">TechSliderLabel::applyTech</text>
<text text-anchor="middle" x="444.5" y="-55" font-family="Helvetica,sans-Serif" font-size="10.00">Style</text>
</a>
</g>
</g>
<!-- Node2&#45;&gt;Node3 -->
<g id="edge2_Node000002_Node000003" class="edge">
<title>Node2&#45;&gt;Node3</title>
<g id="a_edge2_Node000002_Node000003"><a xlink:title=" ">
<path fill="none" stroke="#63b8ff" d="M313.44,-95.94C332.75,-91.05 354.35,-85.58 374.31,-80.52"/>
<polygon fill="#63b8ff" stroke="#63b8ff" points="375.44,-83.85 384.27,-78 373.72,-77.07 375.44,-83.85"/>
</a>
</g>
</g>
<!-- Node4 -->
<g id="Node000004" class="node">
<title>Node4</title>
<g id="a_Node000004"><a xlink:href="classTechSliderLabel.html#a4c98fb21f0ecdc9a82a3e4baede89935" target="_top" xlink:title=" ">
<polygon fill="white" stroke="#666666" points="717,-78 554,-78 554,-48 717,-48 717,-78"/>
<text text-anchor="start" x="562" y="-66" font-family="Helvetica,sans-Serif" font-size="10.00">TechSliderLabel::updateRange</text>
<text text-anchor="middle" x="635.5" y="-55" font-family="Helvetica,sans-Serif" font-size="10.00">Labels</text>
</a>
</g>
</g>
<!-- Node3&#45;&gt;Node4 -->
<g id="edge3_Node000003_Node000004" class="edge">
<title>Node3&#45;&gt;Node4</title>
<g id="a_edge3_Node000003_Node000004"><a xlink:title=" ">
<path fill="none" stroke="#63b8ff" d="M518.03,-63C526.49,-63 535.19,-63 543.85,-63"/>
<polygon fill="#63b8ff" stroke="#63b8ff" points="543.98,-66.5 553.98,-63 543.98,-59.5 543.98,-66.5"/>
</a>
</g>
</g>
<!-- Node5&#45;&gt;Node3 -->
<g id="edge5_Node000005_Node000003" class="edge">
<title>Node5&#45;&gt;Node3</title>
<g id="a_edge5_Node000005_Node000003"><a xlink:title=" ">
<path fill="none" stroke="#63b8ff" d="M329.17,-63C339.58,-63 350.33,-63 360.87,-63"/>
<polygon fill="#63b8ff" stroke="#63b8ff" points="360.9,-66.5 370.9,-63 360.9,-59.5 360.9,-66.5"/>
</a>
</g>
</g>
<!-- Node6&#45;&gt;Node3 -->
<g id="edge7_Node000006_Node000003" class="edge">
<title>Node6&#45;&gt;Node3</title>
<g id="a_edge7_Node000006_Node000003"><a xlink:title=" ">
<path fill="none" stroke="#63b8ff" d="M313.44,-30.06C332.75,-34.95 354.35,-40.42 374.31,-45.48"/>
<polygon fill="#63b8ff" stroke="#63b8ff" points="373.72,-48.93 384.27,-48 375.44,-42.15 373.72,-48.93"/>
</a>
</g>
</g>
</g>
</svg>
