<?xml version="1.0" encoding="UTF-8" standalone="no"?>
<!DOCTYPE svg PUBLIC "-//W3C//DTD SVG 1.1//EN"
 "http://www.w3.org/Graphics/SVG/1.1/DTD/svg11.dtd">
<!-- Generated by graphviz version 2.43.0 (0)
 -->
<!-- Title: ModbusTCPClient::readHoldingRegisters Pages: 1 -->
<svg width="2026pt" height="220pt"
 viewBox="0.00 0.00 2026.00 220.00" xmlns="http://www.w3.org/2000/svg" xmlns:xlink="http://www.w3.org/1999/xlink">
<g id="graph0" class="graph" transform="scale(1 1) rotate(0) translate(4 216)">
<title>ModbusTCPClient::readHoldingRegisters</title>
<!-- Node1 -->
<g id="Node000001" class="node">
<title>Node1</title>
<g id="a_Node000001"><a xlink:title="读取保持寄存器（功能码 0x03）">
<polygon fill="#999999" stroke="#666666" points="2018,-126 1851,-126 1851,-96 2018,-96 2018,-126"/>
<text text-anchor="start" x="1859" y="-114" font-family="Helvetica,sans-Serif" font-size="10.00">ModbusTCPClient::readHolding</text>
<text text-anchor="middle" x="1934.5" y="-103" font-family="Helvetica,sans-Serif" font-size="10.00">Registers</text>
</a>
</g>
</g>
<!-- Node2 -->
<g id="Node000002" class="node">
<title>Node2</title>
<g id="a_Node000002"><a xlink:href="classModbusTCPClient.html#af369857edf88d9d67d90c35b3e5fd598" target="_top" xlink:title=" ">
<polygon fill="white" stroke="#666666" points="1815,-211.5 1644,-211.5 1644,-192.5 1815,-192.5 1815,-211.5"/>
<text text-anchor="middle" x="1729.5" y="-199.5" font-family="Helvetica,sans-Serif" font-size="10.00">ModbusTCPClient::pollRegisters</text>
</a>
</g>
</g>
<!-- Node1&#45;&gt;Node2 -->
<g id="edge1_Node000001_Node000002" class="edge">
<title>Node1&#45;&gt;Node2</title>
<g id="a_edge1_Node000001_Node000002"><a xlink:title=" ">
<path fill="none" stroke="#63b8ff" d="M1904.86,-132.07C1881.7,-148.19 1847.66,-169.82 1815,-183 1805.66,-186.77 1795.42,-189.87 1785.39,-192.39"/>
<polygon fill="#63b8ff" stroke="#63b8ff" points="1907.04,-134.82 1913.19,-126.19 1903,-129.1 1907.04,-134.82"/>
</a>
</g>
</g>
<!-- Node4 -->
<g id="Node000004" class="node">
<title>Node4</title>
<g id="a_Node000004"><a xlink:href="classModbusThreadManager.html#a2e913ddddb8d201caaa5079d118981ba" target="_top" xlink:title="使用示例:">
<polygon fill="white" stroke="#666666" points="1796.5,-174 1662.5,-174 1662.5,-144 1796.5,-144 1796.5,-174"/>
<text text-anchor="start" x="1670.5" y="-162" font-family="Helvetica,sans-Serif" font-size="10.00">ModbusThreadManager</text>
<text text-anchor="middle" x="1729.5" y="-151" font-family="Helvetica,sans-Serif" font-size="10.00">::readAndDebugAddress</text>
</a>
</g>
</g>
<!-- Node1&#45;&gt;Node4 -->
<g id="edge3_Node000001_Node000004" class="edge">
<title>Node1&#45;&gt;Node4</title>
<g id="a_edge3_Node000001_Node000004"><a xlink:title=" ">
<path fill="none" stroke="#63b8ff" d="M1860.03,-128.37C1838.39,-133.49 1814.9,-139.04 1793.95,-144"/>
<polygon fill="#63b8ff" stroke="#63b8ff" points="1860.9,-131.76 1869.83,-126.06 1859.29,-124.95 1860.9,-131.76"/>
</a>
</g>
</g>
<!-- Node9 -->
<g id="Node000009" class="node">
<title>Node9</title>
<g id="a_Node000009"><a xlink:href="classModbusThreadManager.html#aef7b28d686b3368e8483098327aee668" target="_top" xlink:title="读取保持寄存器（功能码 0x03）">
<polygon fill="white" stroke="#666666" points="1795,-126 1664,-126 1664,-96 1795,-96 1795,-126"/>
<text text-anchor="start" x="1672" y="-114" font-family="Helvetica,sans-Serif" font-size="10.00">ModbusThreadManager</text>
<text text-anchor="middle" x="1729.5" y="-103" font-family="Helvetica,sans-Serif" font-size="10.00">::readHoldingRegisters</text>
</a>
</g>
</g>
<!-- Node1&#45;&gt;Node9 -->
<g id="edge8_Node000001_Node000009" class="edge">
<title>Node1&#45;&gt;Node9</title>
<g id="a_edge8_Node000001_Node000009"><a xlink:title=" ">
<path fill="none" stroke="#63b8ff" d="M1840.86,-111C1825.46,-111 1809.77,-111 1795.25,-111"/>
<polygon fill="#63b8ff" stroke="#63b8ff" points="1840.93,-114.5 1850.93,-111 1840.93,-107.5 1840.93,-114.5"/>
</a>
</g>
</g>
<!-- Node22 -->
<g id="Node000022" class="node">
<title>Node22</title>
<g id="a_Node000022"><a xlink:href="classModbusThreadManager.html#af3cb78bb33dda405ce0a3efb15c9aa2c" target="_top" xlink:title="批量读取保持寄存器（内部可能分片）">
<polygon fill="white" stroke="#666666" points="1813,-78 1646,-78 1646,-48 1813,-48 1813,-78"/>
<text text-anchor="start" x="1654" y="-66" font-family="Helvetica,sans-Serif" font-size="10.00">ModbusThreadManager</text>
<text text-anchor="middle" x="1729.5" y="-55" font-family="Helvetica,sans-Serif" font-size="10.00">::readMultipleHoldingRegisters</text>
</a>
</g>
</g>
<!-- Node1&#45;&gt;Node22 -->
<g id="edge23_Node000001_Node000022" class="edge">
<title>Node1&#45;&gt;Node22</title>
<g id="a_edge23_Node000001_Node000022"><a xlink:title=" ">
<path fill="none" stroke="#63b8ff" d="M1860.03,-93.63C1838.39,-88.51 1814.9,-82.96 1793.95,-78"/>
<polygon fill="#63b8ff" stroke="#63b8ff" points="1859.29,-97.05 1869.83,-95.94 1860.9,-90.24 1859.29,-97.05"/>
</a>
</g>
</g>
<!-- Node23 -->
<g id="Node000023" class="node">
<title>Node23</title>
<g id="a_Node000023"><a xlink:href="classModbusThreadManager.html#abfcd369f8e7b9da3ffd6e8f6b2dc5a15" target="_top" xlink:title="读取单个寄存器的值（同步）">
<polygon fill="white" stroke="#666666" points="1795,-30 1664,-30 1664,0 1795,0 1795,-30"/>
<text text-anchor="start" x="1672" y="-18" font-family="Helvetica,sans-Serif" font-size="10.00">ModbusThreadManager</text>
<text text-anchor="middle" x="1729.5" y="-7" font-family="Helvetica,sans-Serif" font-size="10.00">::readSingleRegister</text>
</a>
</g>
</g>
<!-- Node1&#45;&gt;Node23 -->
<g id="edge24_Node000001_Node000023" class="edge">
<title>Node1&#45;&gt;Node23</title>
<g id="a_edge24_Node000001_Node000023"><a xlink:title=" ">
<path fill="none" stroke="#63b8ff" d="M1904.23,-90.14C1880.96,-74.33 1847.09,-53 1815,-39 1807.45,-35.71 1799.33,-32.74 1791.21,-30.1"/>
<polygon fill="#63b8ff" stroke="#63b8ff" points="1902.39,-93.12 1912.61,-95.9 1906.35,-87.35 1902.39,-93.12"/>
</a>
</g>
</g>
<!-- Node3 -->
<g id="Node000003" class="node">
<title>Node3</title>
<g id="a_Node000003"><a xlink:href="classModbusTCPClient.html#a7a1b13f361534cbc1fc3fb35580b90c0" target="_top" xlink:title="构造 ModbusTCPClient">
<polygon fill="white" stroke="#666666" points="1608,-211.5 1416,-211.5 1416,-192.5 1608,-192.5 1608,-211.5"/>
<text text-anchor="middle" x="1512" y="-199.5" font-family="Helvetica,sans-Serif" font-size="10.00">ModbusTCPClient::ModbusTCPClient</text>
</a>
</g>
</g>
<!-- Node2&#45;&gt;Node3 -->
<g id="edge2_Node000002_Node000003" class="edge">
<title>Node2&#45;&gt;Node3</title>
<g id="a_edge2_Node000002_Node000003"><a xlink:title=" ">
<path fill="none" stroke="#63b8ff" d="M1633.92,-202C1625.32,-202 1616.61,-202 1608.01,-202"/>
<polygon fill="#63b8ff" stroke="#63b8ff" points="1633.95,-205.5 1643.95,-202 1633.95,-198.5 1633.95,-205.5"/>
</a>
</g>
</g>
<!-- Node5 -->
<g id="Node000005" class="node">
<title>Node5</title>
<g id="a_Node000005"><a xlink:href="classMainDeviceModbusApi.html#a77da325c61d632fa5a0404a2a86f8f22" target="_top" xlink:title="读取并调试输出指定地址。">
<polygon fill="white" stroke="#666666" points="1579,-174 1445,-174 1445,-144 1579,-144 1579,-174"/>
<text text-anchor="start" x="1453" y="-162" font-family="Helvetica,sans-Serif" font-size="10.00">MainDeviceModbusApi</text>
<text text-anchor="middle" x="1512" y="-151" font-family="Helvetica,sans-Serif" font-size="10.00">::readAndDebugAddress</text>
</a>
</g>
</g>
<!-- Node4&#45;&gt;Node5 -->
<g id="edge4_Node000004_Node000005" class="edge">
<title>Node4&#45;&gt;Node5</title>
<g id="a_edge4_Node000004_Node000005"><a xlink:title=" ">
<path fill="none" stroke="#63b8ff" d="M1652.33,-159C1628.52,-159 1602.45,-159 1579.37,-159"/>
<polygon fill="#63b8ff" stroke="#63b8ff" points="1652.38,-162.5 1662.38,-159 1652.38,-155.5 1652.38,-162.5"/>
</a>
</g>
</g>
<!-- Node6 -->
<g id="Node000006" class="node">
<title>Node6</title>
<g id="a_Node000006"><a xlink:href="classMainModbusPoller.html#ab4b07dc78bfd848cdb7370eaeb4cfa32" target="_top" xlink:title="轮询下一条 Modbus 变量。">
<polygon fill="white" stroke="#666666" points="1376.5,-212 1222.5,-212 1222.5,-182 1376.5,-182 1376.5,-212"/>
<text text-anchor="start" x="1230.5" y="-200" font-family="Helvetica,sans-Serif" font-size="10.00">MainModbusPoller::pollNext</text>
<text text-anchor="middle" x="1299.5" y="-189" font-family="Helvetica,sans-Serif" font-size="10.00">Variable</text>
</a>
</g>
</g>
<!-- Node5&#45;&gt;Node6 -->
<g id="edge5_Node000005_Node000006" class="edge">
<title>Node5&#45;&gt;Node6</title>
<g id="a_edge5_Node000005_Node000006"><a xlink:title=" ">
<path fill="none" stroke="#63b8ff" d="M1434.89,-172.74C1415.91,-176.17 1395.56,-179.84 1376.58,-183.27"/>
<polygon fill="#63b8ff" stroke="#63b8ff" points="1435.75,-176.14 1444.97,-170.92 1434.51,-169.25 1435.75,-176.14"/>
</a>
</g>
</g>
<!-- Node7 -->
<g id="Node000007" class="node">
<title>Node7</title>
<g id="a_Node000007"><a xlink:href="classMainWindow.html#ab4fd2e0f936cae6a9ac4c0c8259f8793" target="_top" xlink:title="立即轮询 Modbus 变量">
<polygon fill="white" stroke="#666666" points="1183,-206.5 997,-206.5 997,-187.5 1183,-187.5 1183,-206.5"/>
<text text-anchor="middle" x="1090" y="-194.5" font-family="Helvetica,sans-Serif" font-size="10.00">MainWindow::pollModbusVariables</text>
</a>
</g>
</g>
<!-- Node6&#45;&gt;Node7 -->
<g id="edge6_Node000006_Node000007" class="edge">
<title>Node6&#45;&gt;Node7</title>
<g id="a_edge6_Node000006_Node000007"><a xlink:title=" ">
<path fill="none" stroke="#63b8ff" d="M1212.16,-197C1202.63,-197 1192.89,-197 1183.29,-197"/>
<polygon fill="#63b8ff" stroke="#63b8ff" points="1212.41,-200.5 1222.41,-197 1212.41,-193.5 1212.41,-200.5"/>
</a>
</g>
</g>
<!-- Node8 -->
<g id="Node000008" class="node">
<title>Node8</title>
<g id="a_Node000008"><a xlink:href="classMainWindow.html#a392ce4cf4ed909720a3d9a88ca796eba" target="_top" xlink:title="启动 Modbus 轮询">
<polygon fill="white" stroke="#666666" points="957,-206.5 778,-206.5 778,-187.5 957,-187.5 957,-206.5"/>
<text text-anchor="middle" x="867.5" y="-194.5" font-family="Helvetica,sans-Serif" font-size="10.00">MainWindow::startModbusPolling</text>
</a>
</g>
</g>
<!-- Node7&#45;&gt;Node8 -->
<g id="edge7_Node000007_Node000008" class="edge">
<title>Node7&#45;&gt;Node8</title>
<g id="a_edge7_Node000007_Node000008"><a xlink:title=" ">
<path fill="none" stroke="#63b8ff" d="M986.58,-197C976.76,-197 966.86,-197 957.19,-197"/>
<polygon fill="#63b8ff" stroke="#63b8ff" points="986.77,-200.5 996.77,-197 986.77,-193.5 986.77,-200.5"/>
</a>
</g>
</g>
<!-- Node10 -->
<g id="Node000010" class="node">
<title>Node10</title>
<g id="a_Node000010"><a xlink:href="classMainDeviceModbusApi.html#a0fafc4541f82d6ed5ff4f032eeb12eba" target="_top" xlink:title="读取保持寄存器。">
<polygon fill="white" stroke="#666666" points="1576,-126 1448,-126 1448,-96 1576,-96 1576,-126"/>
<text text-anchor="start" x="1456" y="-114" font-family="Helvetica,sans-Serif" font-size="10.00">MainDeviceModbusApi</text>
<text text-anchor="middle" x="1512" y="-103" font-family="Helvetica,sans-Serif" font-size="10.00">::readHoldingRegisters</text>
</a>
</g>
</g>
<!-- Node9&#45;&gt;Node10 -->
<g id="edge9_Node000009_Node000010" class="edge">
<title>Node9&#45;&gt;Node10</title>
<g id="a_edge9_Node000009_Node000010"><a xlink:title=" ">
<path fill="none" stroke="#63b8ff" d="M1653.57,-111C1628.31,-111 1600.39,-111 1576.13,-111"/>
<polygon fill="#63b8ff" stroke="#63b8ff" points="1653.84,-114.5 1663.84,-111 1653.84,-107.5 1653.84,-114.5"/>
</a>
</g>
</g>
<!-- Node21 -->
<g id="Node000021" class="node">
<title>Node21</title>
<g id="a_Node000021"><a xlink:href="classModbusThreadManager.html#a434400756e655bcded6989f7828eb65e" target="_top" xlink:title="使用示例:">
<polygon fill="white" stroke="#666666" points="1577.5,-78 1446.5,-78 1446.5,-48 1577.5,-48 1577.5,-78"/>
<text text-anchor="start" x="1454.5" y="-66" font-family="Helvetica,sans-Serif" font-size="10.00">ModbusThreadManager</text>
<text text-anchor="middle" x="1512" y="-55" font-family="Helvetica,sans-Serif" font-size="10.00">::readSingleRegister</text>
</a>
</g>
</g>
<!-- Node9&#45;&gt;Node21 -->
<g id="edge22_Node000009_Node000021" class="edge">
<title>Node9&#45;&gt;Node21</title>
<g id="a_edge22_Node000009_Node000021"><a xlink:title=" ">
<path fill="none" stroke="#63b8ff" d="M1653.76,-94.35C1628.96,-88.83 1601.58,-82.73 1577.61,-77.39"/>
<polygon fill="#63b8ff" stroke="#63b8ff" points="1653.32,-97.84 1663.84,-96.6 1654.84,-91.01 1653.32,-97.84"/>
</a>
</g>
</g>
<!-- Node11 -->
<g id="Node000011" class="node">
<title>Node11</title>
<g id="a_Node000011"><a xlink:href="classMainWindow.html#a6de38b22cae925674fd5ceb43c30c6f1" target="_top" xlink:title="Modbus 已连接">
<polygon fill="white" stroke="#666666" points="961,-142.5 774,-142.5 774,-123.5 961,-123.5 961,-142.5"/>
<text text-anchor="middle" x="867.5" y="-130.5" font-family="Helvetica,sans-Serif" font-size="10.00">MainWindow::onModbusConnected</text>
</a>
</g>
</g>
<!-- Node10&#45;&gt;Node11 -->
<g id="edge10_Node000010_Node000011" class="edge">
<title>Node10&#45;&gt;Node11</title>
<g id="a_edge10_Node000010_Node000011"><a xlink:title=" ">
<path fill="none" stroke="#63b8ff" d="M1437.74,-126.84C1419.01,-130.22 1398.84,-133.29 1380,-135 1234.08,-148.26 1063.77,-143.59 961.13,-138.6"/>
<polygon fill="#63b8ff" stroke="#63b8ff" points="1438.49,-130.26 1447.69,-124.99 1437.22,-123.38 1438.49,-130.26"/>
</a>
</g>
</g>
<!-- Node16 -->
<g id="Node000016" class="node">
<title>Node16</title>
<g id="a_Node000016"><a xlink:href="classMainWindow.html#abcc287dda1e3ae395ba87c7cc5fbf81b" target="_top" xlink:title="读取所有浮点寄存器缓存">
<polygon fill="white" stroke="#666666" points="1371.5,-126 1227.5,-126 1227.5,-96 1371.5,-96 1371.5,-126"/>
<text text-anchor="start" x="1235.5" y="-114" font-family="Helvetica,sans-Serif" font-size="10.00">MainWindow::readAllFloat</text>
<text text-anchor="middle" x="1299.5" y="-103" font-family="Helvetica,sans-Serif" font-size="10.00">Registers</text>
</a>
</g>
</g>
<!-- Node10&#45;&gt;Node16 -->
<g id="edge15_Node000010_Node000016" class="edge">
<title>Node10&#45;&gt;Node16</title>
<g id="a_edge15_Node000010_Node000016"><a xlink:title=" ">
<path fill="none" stroke="#63b8ff" d="M1437.83,-111C1416.41,-111 1393.02,-111 1371.72,-111"/>
<polygon fill="#63b8ff" stroke="#63b8ff" points="1437.84,-114.5 1447.84,-111 1437.84,-107.5 1437.84,-114.5"/>
</a>
</g>
</g>
<!-- Node18 -->
<g id="Node000018" class="node">
<title>Node18</title>
<g id="a_Node000018"><a xlink:href="classMainWindow.html#ae414ae899359cbf080ba9fe6f470d868" target="_top" xlink:title="读取大力值寄存器">
<polygon fill="white" stroke="#666666" points="1374,-78 1225,-78 1225,-48 1374,-48 1374,-78"/>
<text text-anchor="start" x="1233" y="-66" font-family="Helvetica,sans-Serif" font-size="10.00">MainWindow::readBigForce</text>
<text text-anchor="middle" x="1299.5" y="-55" font-family="Helvetica,sans-Serif" font-size="10.00">Registers</text>
</a>
</g>
</g>
<!-- Node10&#45;&gt;Node18 -->
<g id="edge18_Node000010_Node000018" class="edge">
<title>Node10&#45;&gt;Node18</title>
<g id="a_edge18_Node000010_Node000018"><a xlink:title=" ">
<path fill="none" stroke="#63b8ff" d="M1438.04,-94.36C1414.81,-89.07 1389.25,-83.24 1366.53,-78.06"/>
<polygon fill="#63b8ff" stroke="#63b8ff" points="1437.32,-97.79 1447.84,-96.6 1438.87,-90.96 1437.32,-97.79"/>
</a>
</g>
</g>
<!-- Node20 -->
<g id="Node000020" class="node">
<title>Node20</title>
<g id="a_Node000020"><a xlink:href="classMainWindow.html#a3520aea987c1b86b0472f72fd05f1be4" target="_top" xlink:title="读取小力值寄存器">
<polygon fill="white" stroke="#666666" points="1380,-30 1219,-30 1219,0 1380,0 1380,-30"/>
<text text-anchor="start" x="1227" y="-18" font-family="Helvetica,sans-Serif" font-size="10.00">MainWindow::readSmallForce</text>
<text text-anchor="middle" x="1299.5" y="-7" font-family="Helvetica,sans-Serif" font-size="10.00">Registers</text>
</a>
</g>
</g>
<!-- Node10&#45;&gt;Node20 -->
<g id="edge21_Node000010_Node000020" class="edge">
<title>Node10&#45;&gt;Node20</title>
<g id="a_edge21_Node000010_Node000020"><a xlink:title=" ">
<path fill="none" stroke="#63b8ff" d="M1438.05,-98.11C1430.27,-95.14 1422.74,-91.49 1416,-87 1393.8,-72.22 1401.85,-54.28 1380,-39 1375.16,-35.61 1369.82,-32.69 1364.29,-30.18"/>
<polygon fill="#63b8ff" stroke="#63b8ff" points="1437.03,-101.46 1447.63,-101.4 1439.31,-94.84 1437.03,-101.46"/>
</a>
</g>
</g>
<!-- Node12 -->
<g id="Node000012" class="node">
<title>Node12</title>
<g id="a_Node000012"><a xlink:href="classMainWindow.html#a853ad5679a500c6ca99c1a21b540f2de" target="_top" xlink:title="创建并配置 Modbus 管理器">
<polygon fill="white" stroke="#666666" points="738,-142.5 545,-142.5 545,-123.5 738,-123.5 738,-142.5"/>
<text text-anchor="middle" x="641.5" y="-130.5" font-family="Helvetica,sans-Serif" font-size="10.00">MainWindow::setupModbusManager</text>
</a>
</g>
</g>
<!-- Node11&#45;&gt;Node12 -->
<g id="edge11_Node000011_Node000012" class="edge">
<title>Node11&#45;&gt;Node12</title>
<g id="a_edge11_Node000011_Node000012"><a xlink:title=" ">
<path fill="none" stroke="#63b8ff" d="M763.76,-133C755.2,-133 746.56,-133 738.05,-133"/>
<polygon fill="#63b8ff" stroke="#63b8ff" points="763.77,-136.5 773.77,-133 763.77,-129.5 763.77,-136.5"/>
</a>
</g>
</g>
<!-- Node13 -->
<g id="Node000013" class="node">
<title>Node13</title>
<g id="a_Node000013"><a xlink:href="classMainWindow.html#addaf82aa90afe1e30cf3e4eb64aa8781" target="_top" xlink:title="初始化 Modbus 相关配置">
<polygon fill="white" stroke="#666666" points="509,-142.5 369,-142.5 369,-123.5 509,-123.5 509,-142.5"/>
<text text-anchor="middle" x="439" y="-130.5" font-family="Helvetica,sans-Serif" font-size="10.00">MainWindow::modbusInit</text>
</a>
</g>
</g>
<!-- Node12&#45;&gt;Node13 -->
<g id="edge12_Node000012_Node000013" class="edge">
<title>Node12&#45;&gt;Node13</title>
<g id="a_edge12_Node000012_Node000013"><a xlink:title=" ">
<path fill="none" stroke="#63b8ff" d="M534.73,-133C526.03,-133 517.39,-133 509.07,-133"/>
<polygon fill="#63b8ff" stroke="#63b8ff" points="534.95,-136.5 544.95,-133 534.95,-129.5 534.95,-136.5"/>
</a>
</g>
</g>
<!-- Node14 -->
<g id="Node000014" class="node">
<title>Node14</title>
<g id="a_Node000014"><a xlink:href="classMainWindow.html#ad57bfa690bd649e9b5b43552d4f5673c" target="_top" xlink:title="初始化业务子系统（通信、线程、样式、控制）">
<polygon fill="white" stroke="#666666" points="333,-148 184,-148 184,-118 333,-118 333,-148"/>
<text text-anchor="start" x="192" y="-136" font-family="Helvetica,sans-Serif" font-size="10.00">MainWindow::initializeCore</text>
<text text-anchor="middle" x="258.5" y="-125" font-family="Helvetica,sans-Serif" font-size="10.00">Subsystems</text>
</a>
</g>
</g>
<!-- Node13&#45;&gt;Node14 -->
<g id="edge13_Node000013_Node000014" class="edge">
<title>Node13&#45;&gt;Node14</title>
<g id="a_edge13_Node000013_Node000014"><a xlink:title=" ">
<path fill="none" stroke="#63b8ff" d="M358.96,-133C350.34,-133 341.6,-133 333.06,-133"/>
<polygon fill="#63b8ff" stroke="#63b8ff" points="358.99,-136.5 368.99,-133 358.99,-129.5 358.99,-136.5"/>
</a>
</g>
</g>
<!-- Node15 -->
<g id="Node000015" class="node">
<title>Node15</title>
<g id="a_Node000015"><a xlink:href="classMainWindow.html#a996c5a2b6f77944776856f08ec30858d" target="_top" xlink:title="构造 MainWindow 并初始化内部状态与 UI">
<polygon fill="white" stroke="#666666" points="148,-142.5 0,-142.5 0,-123.5 148,-123.5 148,-142.5"/>
<text text-anchor="middle" x="74" y="-130.5" font-family="Helvetica,sans-Serif" font-size="10.00">MainWindow::MainWindow</text>
</a>
</g>
</g>
<!-- Node14&#45;&gt;Node15 -->
<g id="edge14_Node000014_Node000015" class="edge">
<title>Node14&#45;&gt;Node15</title>
<g id="a_edge14_Node000014_Node000015"><a xlink:title=" ">
<path fill="none" stroke="#63b8ff" d="M173.79,-133C165.21,-133 156.54,-133 148.09,-133"/>
<polygon fill="#63b8ff" stroke="#63b8ff" points="173.8,-136.5 183.8,-133 173.8,-129.5 173.8,-136.5"/>
</a>
</g>
</g>
<!-- Node17 -->
<g id="Node000017" class="node">
<title>Node17</title>
<g id="a_Node000017"><a xlink:href="classMainWindow.html#a03f37918e02b032a4f0d75fb9b2df31a" target="_top" xlink:title="配置浮点寄存器读取">
<polygon fill="white" stroke="#666666" points="1177.5,-126 1002.5,-126 1002.5,-96 1177.5,-96 1177.5,-126"/>
<text text-anchor="start" x="1010.5" y="-114" font-family="Helvetica,sans-Serif" font-size="10.00">MainWindow::setupModbusFloat</text>
<text text-anchor="middle" x="1090" y="-103" font-family="Helvetica,sans-Serif" font-size="10.00">Reading</text>
</a>
</g>
</g>
<!-- Node16&#45;&gt;Node17 -->
<g id="edge16_Node000016_Node000017" class="edge">
<title>Node16&#45;&gt;Node17</title>
<g id="a_edge16_Node000016_Node000017"><a xlink:title=" ">
<path fill="none" stroke="#63b8ff" d="M1217.15,-111C1204.24,-111 1190.84,-111 1177.81,-111"/>
<polygon fill="#63b8ff" stroke="#63b8ff" points="1217.38,-114.5 1227.38,-111 1217.38,-107.5 1217.38,-114.5"/>
</a>
</g>
</g>
<!-- Node17&#45;&gt;Node11 -->
<g id="edge17_Node000017_Node000011" class="edge">
<title>Node17&#45;&gt;Node11</title>
<g id="a_edge17_Node000017_Node000011"><a xlink:title=" ">
<path fill="none" stroke="#63b8ff" d="M992.27,-120.65C981.99,-121.68 971.55,-122.72 961.31,-123.74"/>
<polygon fill="#63b8ff" stroke="#63b8ff" points="992.88,-124.11 1002.49,-119.63 992.19,-117.14 992.88,-124.11"/>
</a>
</g>
</g>
<!-- Node19 -->
<g id="Node000019" class="node">
<title>Node19</title>
<g id="a_Node000019"><a xlink:href="classMainWindow.html#a32f2f4cccd23a61aa2ca46759fec27a9" target="_top" xlink:title="配置大量程力读取">
<polygon fill="white" stroke="#666666" points="1167,-60 1013,-60 1013,-30 1167,-30 1167,-60"/>
<text text-anchor="start" x="1021" y="-48" font-family="Helvetica,sans-Serif" font-size="10.00">MainWindow::setupBigForce</text>
<text text-anchor="middle" x="1090" y="-37" font-family="Helvetica,sans-Serif" font-size="10.00">Reading</text>
</a>
</g>
</g>
<!-- Node18&#45;&gt;Node19 -->
<g id="edge19_Node000018_Node000019" class="edge">
<title>Node18&#45;&gt;Node19</title>
<g id="a_edge19_Node000018_Node000019"><a xlink:title=" ">
<path fill="none" stroke="#63b8ff" d="M1214.59,-55.72C1198.96,-54.36 1182.7,-52.95 1167.31,-51.62"/>
<polygon fill="#63b8ff" stroke="#63b8ff" points="1214.49,-59.23 1224.76,-56.6 1215.1,-52.25 1214.49,-59.23"/>
</a>
</g>
</g>
<!-- Node19&#45;&gt;Node19 -->
<g id="edge20_Node000019_Node000019" class="edge">
<title>Node19&#45;&gt;Node19</title>
<g id="a_edge20_Node000019_Node000019"><a xlink:title=" ">
<path fill="none" stroke="#63b8ff" d="M1126.41,-70.6C1121.43,-74.97 1109.3,-78 1090,-78 1057.5,-78 1045.31,-69.41 1053.44,-60.28"/>
<polygon fill="#63b8ff" stroke="#63b8ff" points="1129.91,-70.33 1126.56,-60.28 1122.91,-70.22 1129.91,-70.33"/>
</a>
</g>
</g>
</g>
</svg>
