<?xml version="1.0" encoding="UTF-8" standalone="no"?>
<!DOCTYPE svg PUBLIC "-//W3C//DTD SVG 1.1//EN"
 "http://www.w3.org/Graphics/SVG/1.1/DTD/svg11.dtd">
<!-- Generated by graphviz version 2.43.0 (0)
 -->
<!-- Title: TechSliderLabel::updateRangeLabels Pages: 1 -->
<svg width="1169pt" height="570pt"
 viewBox="0.00 0.00 1169.00 569.95" xmlns="http://www.w3.org/2000/svg" xmlns:xlink="http://www.w3.org/1999/xlink">
<g id="graph0" class="graph" transform="scale(1 1) rotate(0) translate(4 565.95)">
<title>TechSliderLabel::updateRangeLabels</title>
<!-- Node1 -->
<g id="Node000001" class="node">
<title>Node1</title>
<g id="a_Node000001"><a xlink:title=" ">
<polygon fill="#999999" stroke="#666666" points="1161,-140.95 998,-140.95 998,-110.95 1161,-110.95 1161,-140.95"/>
<text text-anchor="start" x="1006" y="-128.95" font-family="Helvetica,sans-Serif" font-size="10.00">TechSliderLabel::updateRange</text>
<text text-anchor="middle" x="1079.5" y="-117.95" font-family="Helvetica,sans-Serif" font-size="10.00">Labels</text>
</a>
</g>
</g>
<!-- Node2 -->
<g id="Node000002" class="node">
<title>Node2</title>
<g id="a_Node000002"><a xlink:href="classTechSliderLabel.html#af0ebb1447f625a86980ae1f48b97835c" target="_top" xlink:title=" ">
<polygon fill="white" stroke="#666666" points="956.5,-422.95 809.5,-422.95 809.5,-392.95 956.5,-392.95 956.5,-422.95"/>
<text text-anchor="start" x="817.5" y="-410.95" font-family="Helvetica,sans-Serif" font-size="10.00">TechSliderLabel::applyTech</text>
<text text-anchor="middle" x="883" y="-399.95" font-family="Helvetica,sans-Serif" font-size="10.00">Style</text>
</a>
</g>
</g>
<!-- Node1&#45;&gt;Node2 -->
<g id="edge1_Node000001_Node000002" class="edge">
<title>Node1&#45;&gt;Node2</title>
<g id="a_edge1_Node000001_Node000002"><a xlink:title=" ">
<path fill="none" stroke="#63b8ff" d="M1062.36,-149.35C1023.7,-205.4 926.64,-346.13 894.51,-392.71"/>
<polygon fill="#63b8ff" stroke="#63b8ff" points="1065.25,-151.33 1068.04,-141.11 1059.48,-147.36 1065.25,-151.33"/>
</a>
</g>
</g>
<!-- Node12 -->
<g id="Node000012" class="node">
<title>Node12</title>
<g id="a_Node000012"><a xlink:href="classTechSliderLabel.html#a6aea5baeaefe4f43a9b0e8366d81b663" target="_top" xlink:title=" ">
<polygon fill="white" stroke="#666666" points="568,-209.45 405,-209.45 405,-190.45 568,-190.45 568,-209.45"/>
<text text-anchor="middle" x="486.5" y="-197.45" font-family="Helvetica,sans-Serif" font-size="10.00">TechSliderLabel::setMaximum</text>
</a>
</g>
</g>
<!-- Node1&#45;&gt;Node12 -->
<g id="edge21_Node000001_Node000012" class="edge">
<title>Node1&#45;&gt;Node12</title>
<g id="a_edge21_Node000001_Node000012"><a xlink:title=" ">
<path fill="none" stroke="#63b8ff" d="M1023.26,-143.92C1004.05,-149.54 982.25,-155.24 962,-158.95 825.16,-184.01 663.23,-193.84 568.3,-197.63"/>
<polygon fill="#63b8ff" stroke="#63b8ff" points="1024.47,-147.21 1033.05,-140.99 1022.46,-140.5 1024.47,-147.21"/>
</a>
</g>
</g>
<!-- Node13 -->
<g id="Node000013" class="node">
<title>Node13</title>
<g id="a_Node000013"><a xlink:href="classTechSliderLabel.html#a5db9db9a7ec40b77927586131b2aed11" target="_top" xlink:title=" ">
<polygon fill="white" stroke="#666666" points="566.5,-172.45 406.5,-172.45 406.5,-153.45 566.5,-153.45 566.5,-172.45"/>
<text text-anchor="middle" x="486.5" y="-160.45" font-family="Helvetica,sans-Serif" font-size="10.00">TechSliderLabel::setMinimum</text>
</a>
</g>
</g>
<!-- Node1&#45;&gt;Node13 -->
<g id="edge22_Node000001_Node000013" class="edge">
<title>Node1&#45;&gt;Node13</title>
<g id="a_edge22_Node000001_Node000013"><a xlink:title=" ">
<path fill="none" stroke="#63b8ff" d="M987.6,-137.51C978.95,-138.41 970.32,-139.25 962,-139.95 823.11,-151.65 660.81,-157.92 566.53,-160.84"/>
<polygon fill="#63b8ff" stroke="#63b8ff" points="988.16,-140.97 997.73,-136.41 987.41,-134.01 988.16,-140.97"/>
</a>
</g>
</g>
<!-- Node14 -->
<g id="Node000014" class="node">
<title>Node14</title>
<g id="a_Node000014"><a xlink:href="classTechSliderLabel.html#ae2d6b74fd9e54932a8889ff477a6bba8" target="_top" xlink:title="设置显示范围">
<polygon fill="white" stroke="#666666" points="558.5,-135.45 414.5,-135.45 414.5,-116.45 558.5,-116.45 558.5,-135.45"/>
<text text-anchor="middle" x="486.5" y="-123.45" font-family="Helvetica,sans-Serif" font-size="10.00">TechSliderLabel::setRange</text>
</a>
</g>
</g>
<!-- Node1&#45;&gt;Node14 -->
<g id="edge24_Node000001_Node000014" class="edge">
<title>Node1&#45;&gt;Node14</title>
<g id="a_edge24_Node000001_Node000014"><a xlink:title=" ">
<path fill="none" stroke="#63b8ff" d="M987.78,-125.95C869.84,-125.95 666.27,-125.95 558.77,-125.95"/>
<polygon fill="#63b8ff" stroke="#63b8ff" points="987.87,-129.45 997.87,-125.95 987.87,-122.45 987.87,-129.45"/>
</a>
</g>
</g>
<!-- Node15 -->
<g id="Node000015" class="node">
<title>Node15</title>
<g id="a_Node000015"><a xlink:href="classTechSliderLabel.html#a2600814871dd5b4858f7d895ef65b23c" target="_top" xlink:title=" ">
<polygon fill="white" stroke="#666666" points="962,-97.45 804,-97.45 804,-78.45 962,-78.45 962,-97.45"/>
<text text-anchor="middle" x="883" y="-85.45" font-family="Helvetica,sans-Serif" font-size="10.00">TechSliderLabel::setPrecision</text>
</a>
</g>
</g>
<!-- Node1&#45;&gt;Node15 -->
<g id="edge23_Node000001_Node000015" class="edge">
<title>Node1&#45;&gt;Node15</title>
<g id="a_edge23_Node000001_Node000015"><a xlink:title=" ">
<path fill="none" stroke="#63b8ff" d="M991.74,-109C971.46,-105.04 950.56,-100.95 932.63,-97.45"/>
<polygon fill="#63b8ff" stroke="#63b8ff" points="991.14,-112.45 1001.63,-110.93 992.49,-105.58 991.14,-112.45"/>
</a>
</g>
</g>
<!-- Node16 -->
<g id="Node000016" class="node">
<title>Node16</title>
<g id="a_Node000016"><a xlink:href="classTechSliderLabel.html#a99c04e18c22bdbbcdbfcfd242656a85a" target="_top" xlink:title="设置数值后缀（单位）">
<polygon fill="white" stroke="#666666" points="953.5,-60.45 812.5,-60.45 812.5,-41.45 953.5,-41.45 953.5,-60.45"/>
<text text-anchor="middle" x="883" y="-48.45" font-family="Helvetica,sans-Serif" font-size="10.00">TechSliderLabel::setSuffix</text>
</a>
</g>
</g>
<!-- Node1&#45;&gt;Node16 -->
<g id="edge25_Node000001_Node000016" class="edge">
<title>Node1&#45;&gt;Node16</title>
<g id="a_edge25_Node000001_Node000016"><a xlink:title=" ">
<path fill="none" stroke="#63b8ff" d="M1043.06,-105.98C1020.44,-93.89 990.16,-78.94 962,-68.95 952.83,-65.7 942.85,-62.88 933.17,-60.5"/>
<polygon fill="#63b8ff" stroke="#63b8ff" points="1041.49,-109.11 1051.95,-110.79 1044.82,-102.95 1041.49,-109.11"/>
</a>
</g>
</g>
<!-- Node17 -->
<g id="Node000017" class="node">
<title>Node17</title>
<g id="a_Node000017"><a xlink:href="classTechSliderLabel.html#a874212f0bdd29ef3b7e6fd51a1b9af50" target="_top" xlink:title=" ">
<polygon fill="white" stroke="#666666" points="344.5,-116.45 208.5,-116.45 208.5,-97.45 344.5,-97.45 344.5,-116.45"/>
<text text-anchor="middle" x="276.5" y="-104.45" font-family="Helvetica,sans-Serif" font-size="10.00">TechSliderLabel::setupUI</text>
</a>
</g>
</g>
<!-- Node1&#45;&gt;Node17 -->
<g id="edge26_Node000001_Node000017" class="edge">
<title>Node1&#45;&gt;Node17</title>
<g id="a_edge26_Node000001_Node000017"><a xlink:title=" ">
<path fill="none" stroke="#63b8ff" d="M1059.28,-103.25C1038.17,-80.22 1001.9,-46.04 962,-31.95 714.85,55.33 388.96,-61.9 300.49,-97.36"/>
<polygon fill="#63b8ff" stroke="#63b8ff" points="1056.83,-105.75 1066.1,-110.88 1062.05,-101.09 1056.83,-105.75"/>
</a>
</g>
</g>
<!-- Node3 -->
<g id="Node000003" class="node">
<title>Node3</title>
<g id="a_Node000003"><a xlink:href="classTechSliderLabel.html#ae1ec5a7453bc90d036404e8f8be00a6a" target="_top" xlink:title="设置力控模式开启状态">
<polygon fill="white" stroke="#666666" points="556.5,-381.95 416.5,-381.95 416.5,-351.95 556.5,-351.95 556.5,-381.95"/>
<text text-anchor="start" x="424.5" y="-369.95" font-family="Helvetica,sans-Serif" font-size="10.00">TechSliderLabel::setForce</text>
<text text-anchor="middle" x="486.5" y="-358.95" font-family="Helvetica,sans-Serif" font-size="10.00">ControlMode</text>
</a>
</g>
</g>
<!-- Node2&#45;&gt;Node3 -->
<g id="edge2_Node000002_Node000003" class="edge">
<title>Node2&#45;&gt;Node3</title>
<g id="a_edge2_Node000002_Node000003"><a xlink:title=" ">
<path fill="none" stroke="#63b8ff" d="M799.31,-397.54C788.78,-396.29 778.14,-395.06 768,-393.95 696.02,-386.07 613.52,-378.27 556.72,-373.1"/>
<polygon fill="#63b8ff" stroke="#63b8ff" points="799.01,-401.03 809.36,-398.74 799.85,-394.07 799.01,-401.03"/>
</a>
</g>
</g>
<!-- Node4 -->
<g id="Node000004" class="node">
<title>Node4</title>
<g id="a_Node000004"><a xlink:href="classTechSliderLabel.html#adb65ffc9ea4492201db628a6ed5ae7c9" target="_top" xlink:title="设置发光颜色（用于高亮/边缘发光）">
<polygon fill="white" stroke="#666666" points="755,-513.95 617,-513.95 617,-483.95 755,-483.95 755,-513.95"/>
<text text-anchor="start" x="625" y="-501.95" font-family="Helvetica,sans-Serif" font-size="10.00">TechSliderLabel::setGlow</text>
<text text-anchor="middle" x="686" y="-490.95" font-family="Helvetica,sans-Serif" font-size="10.00">Color</text>
</a>
</g>
</g>
<!-- Node2&#45;&gt;Node4 -->
<g id="edge3_Node000002_Node000004" class="edge">
<title>Node2&#45;&gt;Node4</title>
<g id="a_edge3_Node000002_Node000004"><a xlink:title=" ">
<path fill="none" stroke="#63b8ff" d="M851.75,-428.48C829.37,-442.97 797.74,-462.03 768,-474.95 760.47,-478.22 752.35,-481.21 744.27,-483.88"/>
<polygon fill="#63b8ff" stroke="#63b8ff" points="853.7,-431.39 860.14,-422.98 849.86,-425.53 853.7,-431.39"/>
</a>
</g>
</g>
<!-- Node6 -->
<g id="Node000006" class="node">
<title>Node6</title>
<g id="a_Node000006"><a xlink:href="classTechSliderLabel.html#a106e5fb25c568a3f7ab30a56260a8e76" target="_top" xlink:title="构造 TechSliderLabel 控件">
<polygon fill="white" stroke="#666666" points="148,-316.95 0,-316.95 0,-286.95 148,-286.95 148,-316.95"/>
<text text-anchor="start" x="8" y="-304.95" font-family="Helvetica,sans-Serif" font-size="10.00">TechSliderLabel::TechSlider</text>
<text text-anchor="middle" x="74" y="-293.95" font-family="Helvetica,sans-Serif" font-size="10.00">Label</text>
</a>
</g>
</g>
<!-- Node2&#45;&gt;Node6 -->
<g id="edge20_Node000002_Node000006" class="edge">
<title>Node2&#45;&gt;Node6</title>
<g id="a_edge20_Node000002_Node000006"><a xlink:title=" ">
<path fill="none" stroke="#63b8ff" d="M799.02,-410.68C703.44,-412.52 541.97,-411.58 405,-390.95 299.97,-375.13 180.48,-337.92 118.1,-316.97"/>
<polygon fill="#63b8ff" stroke="#63b8ff" points="799.28,-414.18 809.2,-410.47 799.13,-407.18 799.28,-414.18"/>
</a>
</g>
</g>
<!-- Node7 -->
<g id="Node000007" class="node">
<title>Node7</title>
<g id="a_Node000007"><a xlink:href="classTechSliderLabel.html#a4f95aaaf43bf112f85d6f35b842e5788" target="_top" xlink:title="设置主颜色（滑块/刻度主色）">
<polygon fill="white" stroke="#666666" points="762,-465.95 610,-465.95 610,-435.95 762,-435.95 762,-465.95"/>
<text text-anchor="start" x="618" y="-453.95" font-family="Helvetica,sans-Serif" font-size="10.00">TechSliderLabel::setPrimary</text>
<text text-anchor="middle" x="686" y="-442.95" font-family="Helvetica,sans-Serif" font-size="10.00">Color</text>
</a>
</g>
</g>
<!-- Node2&#45;&gt;Node7 -->
<g id="edge6_Node000002_Node000007" class="edge">
<title>Node2&#45;&gt;Node7</title>
<g id="a_edge6_Node000002_Node000007"><a xlink:title=" ">
<path fill="none" stroke="#63b8ff" d="M803.87,-425.18C787.75,-428.73 770.9,-432.45 755.16,-435.92"/>
<polygon fill="#63b8ff" stroke="#63b8ff" points="804.79,-428.56 813.8,-422.99 803.28,-421.72 804.79,-428.56"/>
</a>
</g>
</g>
<!-- Node8 -->
<g id="Node000008" class="node">
<title>Node8</title>
<g id="a_Node000008"><a xlink:href="classTechSliderLabel.html#a0674bddcd82c2c7f3ef00d188a94532c" target="_top" xlink:title="设置次要颜色（标签/文字颜色）">
<polygon fill="white" stroke="#666666" points="768,-561.95 604,-561.95 604,-531.95 768,-531.95 768,-561.95"/>
<text text-anchor="start" x="612" y="-549.95" font-family="Helvetica,sans-Serif" font-size="10.00">TechSliderLabel::setSecondary</text>
<text text-anchor="middle" x="686" y="-538.95" font-family="Helvetica,sans-Serif" font-size="10.00">Color</text>
</a>
</g>
</g>
<!-- Node2&#45;&gt;Node8 -->
<g id="edge8_Node000002_Node000008" class="edge">
<title>Node2&#45;&gt;Node8</title>
<g id="a_edge8_Node000002_Node000008"><a xlink:title=" ">
<path fill="none" stroke="#63b8ff" d="M864.89,-431.2C844.58,-457.2 808.32,-498.84 768,-522.95 762.34,-526.34 756.16,-529.27 749.83,-531.82"/>
<polygon fill="#63b8ff" stroke="#63b8ff" points="867.85,-433.09 871.16,-423.02 862.3,-428.83 867.85,-433.09"/>
</a>
</g>
</g>
<!-- Node9 -->
<g id="Node000009" class="node">
<title>Node9</title>
<g id="a_Node000009"><a xlink:href="classTechSliderLabel.html#a91b1be0ff7daa459d3a631991cf3272c" target="_top" xlink:title="设置当前值并更新显示">
<polygon fill="white" stroke="#666666" points="756,-269.45 616,-269.45 616,-250.45 756,-250.45 756,-269.45"/>
<text text-anchor="middle" x="686" y="-257.45" font-family="Helvetica,sans-Serif" font-size="10.00">TechSliderLabel::setValue</text>
</a>
</g>
</g>
<!-- Node2&#45;&gt;Node9 -->
<g id="edge10_Node000002_Node000009" class="edge">
<title>Node2&#45;&gt;Node9</title>
<g id="a_edge10_Node000002_Node000009"><a xlink:title=" ">
<path fill="none" stroke="#63b8ff" d="M854.2,-386.85C811.41,-354.37 731.1,-293.42 699.88,-269.72"/>
<polygon fill="#63b8ff" stroke="#63b8ff" points="852.15,-389.69 862.23,-392.94 856.38,-384.11 852.15,-389.69"/>
</a>
</g>
</g>
<!-- Node5 -->
<g id="Node000005" class="node">
<title>Node5</title>
<g id="a_Node000005"><a xlink:href="classTechSliderLabel.html#a3f30d7b64372953e259913253c97e1db" target="_top" xlink:title="应用内置科技蓝主题样式">
<polygon fill="white" stroke="#666666" points="554,-500.95 419,-500.95 419,-470.95 554,-470.95 554,-500.95"/>
<text text-anchor="start" x="427" y="-488.95" font-family="Helvetica,sans-Serif" font-size="10.00">TechSliderLabel::setTech</text>
<text text-anchor="middle" x="486.5" y="-477.95" font-family="Helvetica,sans-Serif" font-size="10.00">BlueStyle</text>
</a>
</g>
</g>
<!-- Node4&#45;&gt;Node5 -->
<g id="edge4_Node000004_Node000005" class="edge">
<title>Node4&#45;&gt;Node5</title>
<g id="a_edge4_Node000004_Node000005"><a xlink:title=" ">
<path fill="none" stroke="#63b8ff" d="M606.63,-493.79C589.23,-492.65 570.95,-491.44 554.08,-490.33"/>
<polygon fill="#63b8ff" stroke="#63b8ff" points="606.55,-497.29 616.76,-494.46 607.01,-490.31 606.55,-497.29"/>
</a>
</g>
</g>
<!-- Node5&#45;&gt;Node6 -->
<g id="edge5_Node000005_Node000006" class="edge">
<title>Node5&#45;&gt;Node6</title>
<g id="a_edge5_Node000005_Node000006"><a xlink:title=" ">
<path fill="none" stroke="#63b8ff" d="M408.94,-483.43C345.02,-478.34 253.46,-463.93 184,-423.95 137.47,-397.17 100.23,-343.44 83.93,-317.14"/>
<polygon fill="#63b8ff" stroke="#63b8ff" points="408.72,-486.92 418.95,-484.16 409.23,-479.94 408.72,-486.92"/>
</a>
</g>
</g>
<!-- Node7&#45;&gt;Node5 -->
<g id="edge7_Node000007_Node000005" class="edge">
<title>Node7&#45;&gt;Node5</title>
<g id="a_edge7_Node000007_Node000005"><a xlink:title=" ">
<path fill="none" stroke="#63b8ff" d="M599.8,-466.05C584.51,-468.76 568.78,-471.54 554.11,-474.14"/>
<polygon fill="#63b8ff" stroke="#63b8ff" points="600.53,-469.47 609.77,-464.28 599.31,-462.58 600.53,-469.47"/>
</a>
</g>
</g>
<!-- Node8&#45;&gt;Node5 -->
<g id="edge9_Node000008_Node000005" class="edge">
<title>Node8&#45;&gt;Node5</title>
<g id="a_edge9_Node000008_Node000005"><a xlink:title=" ">
<path fill="none" stroke="#63b8ff" d="M623.79,-528.95C617.11,-526.94 610.41,-524.92 604,-522.95 580.97,-515.88 555.47,-507.81 534.2,-501.01"/>
<polygon fill="#63b8ff" stroke="#63b8ff" points="622.95,-532.35 633.54,-531.86 624.96,-525.65 622.95,-532.35"/>
</a>
</g>
</g>
<!-- Node9&#45;&gt;Node3 -->
<g id="edge14_Node000009_Node000003" class="edge">
<title>Node9&#45;&gt;Node3</title>
<g id="a_edge14_Node000009_Node000003"><a xlink:title=" ">
<path fill="none" stroke="#63b8ff" d="M664.47,-275.88C641.81,-292.92 603.8,-319.91 568,-337.95 557.79,-343.1 546.43,-347.77 535.55,-351.79"/>
<polygon fill="#63b8ff" stroke="#63b8ff" points="666.79,-278.51 672.64,-269.67 662.56,-272.94 666.79,-278.51"/>
</a>
</g>
</g>
<!-- Node9&#45;&gt;Node6 -->
<g id="edge19_Node000009_Node000006" class="edge">
<title>Node9&#45;&gt;Node6</title>
<g id="a_edge19_Node000009_Node000006"><a xlink:title=" ">
<path fill="none" stroke="#63b8ff" d="M605.69,-257.64C593.08,-257.35 580.18,-257.11 568,-256.95 495.56,-256.02 477.31,-252.55 405,-256.95 306.23,-262.96 281.95,-269.89 184,-283.95 172.42,-285.61 160.17,-287.5 148.22,-289.42"/>
<polygon fill="#63b8ff" stroke="#63b8ff" points="605.63,-261.14 615.71,-257.88 605.8,-254.14 605.63,-261.14"/>
</a>
</g>
</g>
<!-- Node10 -->
<g id="Node000010" class="node">
<title>Node10</title>
<g id="a_Node000010"><a xlink:href="classTechSliderLabel.html#a20e76cbe3e35a76f8f5110d49b3a0e83" target="_top" xlink:title=" ">
<polygon fill="white" stroke="#666666" points="555.5,-295.95 417.5,-295.95 417.5,-265.95 555.5,-265.95 555.5,-295.95"/>
<text text-anchor="start" x="425.5" y="-283.95" font-family="Helvetica,sans-Serif" font-size="10.00">TechSliderLabel::onSlider</text>
<text text-anchor="middle" x="486.5" y="-272.95" font-family="Helvetica,sans-Serif" font-size="10.00">ValueChanged</text>
</a>
</g>
</g>
<!-- Node9&#45;&gt;Node10 -->
<g id="edge11_Node000009_Node000010" class="edge">
<title>Node9&#45;&gt;Node10</title>
<g id="a_edge11_Node000009_Node000010"><a xlink:title=" ">
<path fill="none" stroke="#63b8ff" d="M605.7,-268.38C589.08,-270.15 571.7,-272 555.54,-273.72"/>
<polygon fill="#63b8ff" stroke="#63b8ff" points="606.35,-271.83 615.92,-267.29 605.61,-264.87 606.35,-271.83"/>
</a>
</g>
</g>
<!-- Node11 -->
<g id="Node000011" class="node">
<title>Node11</title>
<g id="a_Node000011"><a xlink:href="classTechSliderLabel.html#aff4a891b36e70b10fbd4f088155dbff4" target="_top" xlink:title=" ">
<polygon fill="white" stroke="#666666" points="369,-311.45 184,-311.45 184,-292.45 369,-292.45 369,-311.45"/>
<text text-anchor="middle" x="276.5" y="-299.45" font-family="Helvetica,sans-Serif" font-size="10.00">TechSliderLabel::setupConnections</text>
</a>
</g>
</g>
<!-- Node9&#45;&gt;Node11 -->
<g id="edge18_Node000009_Node000011" class="edge">
<title>Node9&#45;&gt;Node11</title>
<g id="a_edge18_Node000009_Node000011"><a xlink:title=" ">
<path fill="none" stroke="#63b8ff" d="M657.36,-273.91C634.17,-284.8 599.83,-299.04 568,-304.95 500.06,-317.56 421.64,-315.82 363.42,-311.47"/>
<polygon fill="#63b8ff" stroke="#63b8ff" points="659.08,-276.97 666.58,-269.49 656.05,-270.66 659.08,-276.97"/>
</a>
</g>
</g>
<!-- Node9&#45;&gt;Node12 -->
<g id="edge15_Node000009_Node000012" class="edge">
<title>Node9&#45;&gt;Node12</title>
<g id="a_edge15_Node000009_Node000012"><a xlink:title=" ">
<path fill="none" stroke="#63b8ff" d="M644.65,-247.44C622.11,-240.48 593.51,-231.68 568,-223.95 552.09,-219.13 534.38,-213.84 519.64,-209.46"/>
<polygon fill="#63b8ff" stroke="#63b8ff" points="643.64,-250.79 654.23,-250.4 645.71,-244.1 643.64,-250.79"/>
</a>
</g>
</g>
<!-- Node9&#45;&gt;Node13 -->
<g id="edge16_Node000009_Node000013" class="edge">
<title>Node9&#45;&gt;Node13</title>
<g id="a_edge16_Node000009_Node000013"><a xlink:title=" ">
<path fill="none" stroke="#63b8ff" d="M665.55,-243.78C643.31,-226.09 605.16,-198.1 568,-181.95 559.18,-178.12 549.46,-174.99 539.92,-172.46"/>
<polygon fill="#63b8ff" stroke="#63b8ff" points="663.55,-246.67 673.53,-250.23 667.96,-241.22 663.55,-246.67"/>
</a>
</g>
</g>
<!-- Node9&#45;&gt;Node14 -->
<g id="edge17_Node000009_Node000014" class="edge">
<title>Node9&#45;&gt;Node14</title>
<g id="a_edge17_Node000009_Node000014"><a xlink:title=" ">
<path fill="none" stroke="#63b8ff" d="M671.99,-242.03C652.41,-216.41 612.84,-169.69 568,-144.95 560.96,-141.06 553.15,-137.97 545.24,-135.51"/>
<polygon fill="#63b8ff" stroke="#63b8ff" points="669.27,-244.23 678.06,-250.14 674.87,-240.03 669.27,-244.23"/>
</a>
</g>
</g>
<!-- Node10&#45;&gt;Node11 -->
<g id="edge12_Node000010_Node000011" class="edge">
<title>Node10&#45;&gt;Node11</title>
<g id="a_edge12_Node000010_Node000011"><a xlink:title=" ">
<path fill="none" stroke="#63b8ff" d="M407.13,-288.86C394.75,-290.11 381.85,-291.41 369.2,-292.69"/>
<polygon fill="#63b8ff" stroke="#63b8ff" points="407.8,-292.31 417.39,-287.83 407.09,-285.35 407.8,-292.31"/>
</a>
</g>
</g>
<!-- Node11&#45;&gt;Node6 -->
<g id="edge13_Node000011_Node000006" class="edge">
<title>Node11&#45;&gt;Node6</title>
<g id="a_edge13_Node000011_Node000006"><a xlink:title=" ">
<path fill="none" stroke="#63b8ff" d="M173.64,-301.95C165.02,-301.95 156.41,-301.95 148.07,-301.95"/>
<polygon fill="#63b8ff" stroke="#63b8ff" points="173.76,-305.45 183.76,-301.95 173.76,-298.45 173.76,-305.45"/>
</a>
</g>
</g>
<!-- Node17&#45;&gt;Node6 -->
<g id="edge27_Node000017_Node000006" class="edge">
<title>Node17&#45;&gt;Node6</title>
<g id="a_edge27_Node000017_Node000006"><a xlink:title=" ">
<path fill="none" stroke="#63b8ff" d="M258.19,-123.78C219.67,-161.25 127.33,-251.05 90.53,-286.85"/>
<polygon fill="#63b8ff" stroke="#63b8ff" points="260.83,-126.1 265.56,-116.62 255.95,-121.08 260.83,-126.1"/>
</a>
</g>
</g>
</g>
</svg>
