<?xml version="1.0" encoding="UTF-8" standalone="no"?>
<!DOCTYPE svg PUBLIC "-//W3C//DTD SVG 1.1//EN"
 "http://www.w3.org/Graphics/SVG/1.1/DTD/svg11.dtd">
<!-- Generated by graphviz version 2.43.0 (0)
 -->
<!-- Title: TechArcGauge::valueChanged Pages: 1 -->
<svg width="1256pt" height="170pt"
 viewBox="0.00 0.00 1256.00 169.73" xmlns="http://www.w3.org/2000/svg" xmlns:xlink="http://www.w3.org/1999/xlink">
<g id="graph0" class="graph" transform="scale(1 1) rotate(0) translate(4 165.73)">
<title>TechArcGauge::valueChanged</title>
<!-- Node1 -->
<g id="Node000001" class="node">
<title>Node1</title>
<g id="a_Node000001"><a xlink:title=" ">
<polygon fill="#999999" stroke="#666666" points="1248,-104.5 1087,-104.5 1087,-85.5 1248,-85.5 1248,-104.5"/>
<text text-anchor="middle" x="1167.5" y="-92.5" font-family="Helvetica,sans-Serif" font-size="10.00">TechArcGauge::valueChanged</text>
</a>
</g>
</g>
<!-- Node2 -->
<g id="Node000002" class="node">
<title>Node2</title>
<g id="a_Node000002"><a xlink:href="classTechArcGauge.html#a1a2879196d5ba6758e4777627d5b7fe9" target="_top" xlink:title=" ">
<polygon fill="white" stroke="#666666" points="1051,-104.5 917,-104.5 917,-85.5 1051,-85.5 1051,-104.5"/>
<text text-anchor="middle" x="984" y="-92.5" font-family="Helvetica,sans-Serif" font-size="10.00">TechArcGauge::setValue</text>
</a>
</g>
</g>
<!-- Node1&#45;&gt;Node2 -->
<g id="edge1_Node000001_Node000002" class="edge">
<title>Node1&#45;&gt;Node2</title>
<g id="a_edge1_Node000001_Node000002"><a xlink:title=" ">
<path fill="none" stroke="#63b8ff" d="M1076.8,-95C1068.19,-95 1059.56,-95 1051.23,-95"/>
<polygon fill="#63b8ff" stroke="#63b8ff" points="1076.89,-98.5 1086.89,-95 1076.89,-91.5 1076.89,-98.5"/>
</a>
</g>
</g>
<!-- Node3 -->
<g id="Node000003" class="node">
<title>Node3</title>
<g id="a_Node000003"><a xlink:href="classMainWindow.html#a44742de3a45840c662f3bb5cb3821e7c" target="_top" xlink:title="初始化速度仪表 UI">
<polygon fill="white" stroke="#666666" points="689,-123.5 516,-123.5 516,-104.5 689,-104.5 689,-123.5"/>
<text text-anchor="middle" x="602.5" y="-111.5" font-family="Helvetica,sans-Serif" font-size="10.00">MainWindow::initSpeedGaugeUI</text>
</a>
</g>
</g>
<!-- Node2&#45;&gt;Node3 -->
<g id="edge2_Node000002_Node000003" class="edge">
<title>Node2&#45;&gt;Node3</title>
<g id="a_edge2_Node000002_Node000003"><a xlink:title=" ">
<path fill="none" stroke="#63b8ff" d="M962.15,-110.58C942.42,-124.28 911.38,-143.21 881,-151 813.84,-168.22 793.58,-161.21 725,-151 690.1,-145.8 651.37,-132.65 627.22,-123.52"/>
<polygon fill="#63b8ff" stroke="#63b8ff" points="964.26,-113.37 970.37,-104.71 960.2,-107.67 964.26,-113.37"/>
</a>
</g>
</g>
<!-- Node7 -->
<g id="Node000007" class="node">
<title>Node7</title>
<g id="a_Node000007"><a xlink:href="classTechArcGauge.html#a16c389543124892a0d8b3ba18458306f" target="_top" xlink:title=" ">
<polygon fill="white" stroke="#666666" points="881,-141.5 725,-141.5 725,-122.5 881,-122.5 881,-141.5"/>
<text text-anchor="middle" x="803" y="-129.5" font-family="Helvetica,sans-Serif" font-size="10.00">TechArcGauge::setMaximum</text>
</a>
</g>
</g>
<!-- Node2&#45;&gt;Node7 -->
<g id="edge6_Node000002_Node000007" class="edge">
<title>Node2&#45;&gt;Node7</title>
<g id="a_edge6_Node000002_Node000007"><a xlink:title=" ">
<path fill="none" stroke="#63b8ff" d="M926.96,-106.58C902.3,-111.68 873.67,-117.6 850.25,-122.44"/>
<polygon fill="#63b8ff" stroke="#63b8ff" points="927.82,-109.98 936.9,-104.53 926.4,-103.13 927.82,-109.98"/>
</a>
</g>
</g>
<!-- Node8 -->
<g id="Node000008" class="node">
<title>Node8</title>
<g id="a_Node000008"><a xlink:href="classTechArcGauge.html#a36bb8f9c9b0d8c2f2ae721ad66c7082c" target="_top" xlink:title=" ">
<polygon fill="white" stroke="#666666" points="879.5,-104.5 726.5,-104.5 726.5,-85.5 879.5,-85.5 879.5,-104.5"/>
<text text-anchor="middle" x="803" y="-92.5" font-family="Helvetica,sans-Serif" font-size="10.00">TechArcGauge::setMinimum</text>
</a>
</g>
</g>
<!-- Node2&#45;&gt;Node8 -->
<g id="edge7_Node000002_Node000008" class="edge">
<title>Node2&#45;&gt;Node8</title>
<g id="a_edge7_Node000002_Node000008"><a xlink:title=" ">
<path fill="none" stroke="#63b8ff" d="M906.77,-95C897.75,-95 888.55,-95 879.54,-95"/>
<polygon fill="#63b8ff" stroke="#63b8ff" points="906.86,-98.5 916.86,-95 906.86,-91.5 906.86,-98.5"/>
</a>
</g>
</g>
<!-- Node9 -->
<g id="Node000009" class="node">
<title>Node9</title>
<g id="a_Node000009"><a xlink:href="classTechArcGauge.html#a14e95442058219c8243d512ea03b52aa" target="_top" xlink:title=" ">
<polygon fill="white" stroke="#666666" points="871.5,-67.5 734.5,-67.5 734.5,-48.5 871.5,-48.5 871.5,-67.5"/>
<text text-anchor="middle" x="803" y="-55.5" font-family="Helvetica,sans-Serif" font-size="10.00">TechArcGauge::setRange</text>
</a>
</g>
</g>
<!-- Node2&#45;&gt;Node9 -->
<g id="edge8_Node000002_Node000009" class="edge">
<title>Node2&#45;&gt;Node9</title>
<g id="a_edge8_Node000002_Node000009"><a xlink:title=" ">
<path fill="none" stroke="#63b8ff" d="M926.96,-83.42C902.3,-78.32 873.67,-72.4 850.25,-67.56"/>
<polygon fill="#63b8ff" stroke="#63b8ff" points="926.4,-86.87 936.9,-85.47 927.82,-80.02 926.4,-86.87"/>
</a>
</g>
</g>
<!-- Node10 -->
<g id="Node000010" class="node">
<title>Node10</title>
<g id="a_Node000010"><a xlink:href="classTechArcGauge.html#a076bcadd22c73d3d740152571f60ce42" target="_top" xlink:title=" ">
<polygon fill="white" stroke="#666666" points="878,-30 728,-30 728,0 878,0 878,-30"/>
<text text-anchor="start" x="736" y="-18" font-family="Helvetica,sans-Serif" font-size="10.00">TechArcGauge::updateFrom</text>
<text text-anchor="middle" x="803" y="-7" font-family="Helvetica,sans-Serif" font-size="10.00">Modbus</text>
</a>
</g>
</g>
<!-- Node2&#45;&gt;Node10 -->
<g id="edge10_Node000002_Node000010" class="edge">
<title>Node2&#45;&gt;Node10</title>
<g id="a_edge10_Node000002_Node000010"><a xlink:title=" ">
<path fill="none" stroke="#63b8ff" d="M958.32,-80.05C938.04,-68.18 908.31,-51.68 881,-40 872.73,-36.46 863.78,-33.13 855.01,-30.12"/>
<polygon fill="#63b8ff" stroke="#63b8ff" points="956.81,-83.23 967.19,-85.31 960.37,-77.2 956.81,-83.23"/>
</a>
</g>
</g>
<!-- Node4 -->
<g id="Node000004" class="node">
<title>Node4</title>
<g id="a_Node000004"><a xlink:href="classMainWindow.html#a9388168e83016e31d2668a501450bcac" target="_top" xlink:title="初始化窗口 UI（内部）">
<polygon fill="white" stroke="#666666" points="480,-123.5 369,-123.5 369,-104.5 480,-104.5 480,-123.5"/>
<text text-anchor="middle" x="424.5" y="-111.5" font-family="Helvetica,sans-Serif" font-size="10.00">MainWindow::initUI</text>
</a>
</g>
</g>
<!-- Node3&#45;&gt;Node4 -->
<g id="edge3_Node000003_Node000004" class="edge">
<title>Node3&#45;&gt;Node4</title>
<g id="a_edge3_Node000003_Node000004"><a xlink:title=" ">
<path fill="none" stroke="#63b8ff" d="M505.65,-114C497,-114 488.46,-114 480.36,-114"/>
<polygon fill="#63b8ff" stroke="#63b8ff" points="505.82,-117.5 515.82,-114 505.82,-110.5 505.82,-117.5"/>
</a>
</g>
</g>
<!-- Node5 -->
<g id="Node000005" class="node">
<title>Node5</title>
<g id="a_Node000005"><a xlink:href="classMainWindow.html#a0cb4955bff598ad95110e9525a52214d" target="_top" xlink:title="初始化核心页面和基础 UI 模块">
<polygon fill="white" stroke="#666666" points="333,-129 184,-129 184,-99 333,-99 333,-129"/>
<text text-anchor="start" x="192" y="-117" font-family="Helvetica,sans-Serif" font-size="10.00">MainWindow::initializeCore</text>
<text text-anchor="middle" x="258.5" y="-106" font-family="Helvetica,sans-Serif" font-size="10.00">PagesAndUi</text>
</a>
</g>
</g>
<!-- Node4&#45;&gt;Node5 -->
<g id="edge4_Node000004_Node000005" class="edge">
<title>Node4&#45;&gt;Node5</title>
<g id="a_edge4_Node000004_Node000005"><a xlink:title=" ">
<path fill="none" stroke="#63b8ff" d="M358.77,-114C350.36,-114 341.69,-114 333.14,-114"/>
<polygon fill="#63b8ff" stroke="#63b8ff" points="358.89,-117.5 368.89,-114 358.89,-110.5 358.89,-117.5"/>
</a>
</g>
</g>
<!-- Node6 -->
<g id="Node000006" class="node">
<title>Node6</title>
<g id="a_Node000006"><a xlink:href="classMainWindow.html#a996c5a2b6f77944776856f08ec30858d" target="_top" xlink:title="构造 MainWindow 并初始化内部状态与 UI">
<polygon fill="white" stroke="#666666" points="148,-123.5 0,-123.5 0,-104.5 148,-104.5 148,-123.5"/>
<text text-anchor="middle" x="74" y="-111.5" font-family="Helvetica,sans-Serif" font-size="10.00">MainWindow::MainWindow</text>
</a>
</g>
</g>
<!-- Node5&#45;&gt;Node6 -->
<g id="edge5_Node000005_Node000006" class="edge">
<title>Node5&#45;&gt;Node6</title>
<g id="a_edge5_Node000005_Node000006"><a xlink:title=" ">
<path fill="none" stroke="#63b8ff" d="M173.79,-114C165.21,-114 156.54,-114 148.09,-114"/>
<polygon fill="#63b8ff" stroke="#63b8ff" points="173.8,-117.5 183.8,-114 173.8,-110.5 173.8,-117.5"/>
</a>
</g>
</g>
<!-- Node9&#45;&gt;Node3 -->
<g id="edge9_Node000009_Node000003" class="edge">
<title>Node9&#45;&gt;Node3</title>
<g id="a_edge9_Node000009_Node000003"><a xlink:title=" ">
<path fill="none" stroke="#63b8ff" d="M751.64,-70.01C742.74,-72.25 733.58,-74.64 725,-77 693.54,-85.67 657.84,-96.68 633.33,-104.43"/>
<polygon fill="#63b8ff" stroke="#63b8ff" points="752.67,-73.36 761.53,-67.55 750.98,-66.57 752.67,-73.36"/>
</a>
</g>
</g>
</g>
</svg>
