<?xml version="1.0" encoding="UTF-8" standalone="no"?>
<!DOCTYPE svg PUBLIC "-//W3C//DTD SVG 1.1//EN"
 "http://www.w3.org/Graphics/SVG/1.1/DTD/svg11.dtd">
<!-- Generated by graphviz version 2.43.0 (0)
 -->
<!-- Title: ModbusTCPClient::dataReceived Pages: 1 -->
<svg width="621pt" height="27pt"
 viewBox="0.00 0.00 621.00 27.00" xmlns="http://www.w3.org/2000/svg" xmlns:xlink="http://www.w3.org/1999/xlink">
<g id="graph0" class="graph" transform="scale(1 1) rotate(0) translate(4 23)">
<title>ModbusTCPClient::dataReceived</title>
<!-- Node1 -->
<g id="Node000001" class="node">
<title>Node1</title>
<g id="a_Node000001"><a xlink:title=" ">
<polygon fill="#999999" stroke="#666666" points="613,-19 439,-19 439,0 613,0 613,-19"/>
<text text-anchor="middle" x="526" y="-7" font-family="Helvetica,sans-Serif" font-size="10.00">ModbusTCPClient::dataReceived</text>
</a>
</g>
</g>
<!-- Node2 -->
<g id="Node000002" class="node">
<title>Node2</title>
<g id="a_Node000002"><a xlink:href="classModbusTCPClient.html#a11962b8ae8ec1a196ba7f0b974930f33" target="_top" xlink:title=" ">
<polygon fill="white" stroke="#666666" points="403,-19 228,-19 228,0 403,0 403,-19"/>
<text text-anchor="middle" x="315.5" y="-7" font-family="Helvetica,sans-Serif" font-size="10.00">ModbusTCPClient::onReadyRead</text>
</a>
</g>
</g>
<!-- Node1&#45;&gt;Node2 -->
<g id="edge1_Node000001_Node000002" class="edge">
<title>Node1&#45;&gt;Node2</title>
<g id="a_edge1_Node000001_Node000002"><a xlink:title=" ">
<path fill="none" stroke="#63b8ff" d="M428.99,-9.5C420.43,-9.5 411.8,-9.5 403.32,-9.5"/>
<polygon fill="#63b8ff" stroke="#63b8ff" points="428.99,-13 438.99,-9.5 428.99,-6 428.99,-13"/>
</a>
</g>
</g>
<!-- Node3 -->
<g id="Node000003" class="node">
<title>Node3</title>
<g id="a_Node000003"><a xlink:href="classModbusTCPClient.html#a7a1b13f361534cbc1fc3fb35580b90c0" target="_top" xlink:title="构造 ModbusTCPClient">
<polygon fill="white" stroke="#666666" points="192,-19 0,-19 0,0 192,0 192,-19"/>
<text text-anchor="middle" x="96" y="-7" font-family="Helvetica,sans-Serif" font-size="10.00">ModbusTCPClient::ModbusTCPClient</text>
</a>
</g>
</g>
<!-- Node2&#45;&gt;Node3 -->
<g id="edge2_Node000002_Node000003" class="edge">
<title>Node2&#45;&gt;Node3</title>
<g id="a_edge2_Node000002_Node000003"><a xlink:title=" ">
<path fill="none" stroke="#63b8ff" d="M217.67,-9.5C209.22,-9.5 200.67,-9.5 192.23,-9.5"/>
<polygon fill="#63b8ff" stroke="#63b8ff" points="217.91,-13 227.91,-9.5 217.91,-6 217.91,-13"/>
</a>
</g>
</g>
</g>
</svg>
