<?xml version="1.0" encoding="UTF-8" standalone="no"?>
<!DOCTYPE svg PUBLIC "-//W3C//DTD SVG 1.1//EN"
 "http://www.w3.org/Graphics/SVG/1.1/DTD/svg11.dtd">
<!-- Generated by graphviz version 2.43.0 (0)
 -->
<!-- Title: techarcgauge.h Pages: 1 -->
<svg width="625pt" height="137pt"
 viewBox="0.00 0.00 625.00 137.00" xmlns="http://www.w3.org/2000/svg" xmlns:xlink="http://www.w3.org/1999/xlink">
<g id="graph0" class="graph" transform="scale(1 1) rotate(0) translate(4 133)">
<title>techarcgauge.h</title>
<!-- Node1 -->
<g id="Node000001" class="node">
<title>Node1</title>
<g id="a_Node000001"><a xlink:title=" ">
<polygon fill="#999999" stroke="#666666" points="277.5,-129 185.5,-129 185.5,-110 277.5,-110 277.5,-129"/>
<text text-anchor="middle" x="231.5" y="-117" font-family="Helvetica,sans-Serif" font-size="10.00">techarcgauge.h</text>
</a>
</g>
</g>
<!-- Node2 -->
<g id="Node000002" class="node">
<title>Node2</title>
<g id="a_Node000002"><a xlink:title=" ">
<polygon fill="#e0e0e0" stroke="#999999" points="59,-74 0,-74 0,-55 59,-55 59,-74"/>
<text text-anchor="middle" x="29.5" y="-62" font-family="Helvetica,sans-Serif" font-size="10.00">QWidget</text>
</a>
</g>
</g>
<!-- Node1&#45;&gt;Node2 -->
<g id="edge1_Node000001_Node000002" class="edge">
<title>Node1&#45;&gt;Node2</title>
<g id="a_edge1_Node000001_Node000002"><a xlink:title=" ">
<path fill="none" stroke="#63b8ff" d="M199.05,-109.98C163.62,-100.69 106.9,-85.81 68.94,-75.85"/>
<polygon fill="#63b8ff" stroke="#63b8ff" points="69.8,-72.46 59.24,-73.3 68.03,-79.23 69.8,-72.46"/>
</a>
</g>
</g>
<!-- Node3 -->
<g id="Node000003" class="node">
<title>Node3</title>
<g id="a_Node000003"><a xlink:title=" ">
<polygon fill="#e0e0e0" stroke="#999999" points="127.5,-74 77.5,-74 77.5,-55 127.5,-55 127.5,-74"/>
<text text-anchor="middle" x="102.5" y="-62" font-family="Helvetica,sans-Serif" font-size="10.00">QColor</text>
</a>
</g>
</g>
<!-- Node1&#45;&gt;Node3 -->
<g id="edge2_Node000001_Node000003" class="edge">
<title>Node1&#45;&gt;Node3</title>
<g id="a_edge2_Node000001_Node000003"><a xlink:title=" ">
<path fill="none" stroke="#63b8ff" d="M210.77,-109.98C189.74,-101.34 156.95,-87.87 132.96,-78.02"/>
<polygon fill="#63b8ff" stroke="#63b8ff" points="134.18,-74.73 123.6,-74.17 131.52,-81.21 134.18,-74.73"/>
</a>
</g>
</g>
<!-- Node4 -->
<g id="Node000004" class="node">
<title>Node4</title>
<g id="a_Node000004"><a xlink:title=" ">
<polygon fill="#e0e0e0" stroke="#999999" points="203.5,-74 145.5,-74 145.5,-55 203.5,-55 203.5,-74"/>
<text text-anchor="middle" x="174.5" y="-62" font-family="Helvetica,sans-Serif" font-size="10.00">QPainter</text>
</a>
</g>
</g>
<!-- Node1&#45;&gt;Node4 -->
<g id="edge3_Node000001_Node000004" class="edge">
<title>Node1&#45;&gt;Node4</title>
<g id="a_edge3_Node000001_Node000004"><a xlink:title=" ">
<path fill="none" stroke="#63b8ff" d="M222.34,-109.98C214,-102.23 201.47,-90.58 191.32,-81.14"/>
<polygon fill="#63b8ff" stroke="#63b8ff" points="193.53,-78.42 183.82,-74.17 188.76,-83.54 193.53,-78.42"/>
</a>
</g>
</g>
<!-- Node5 -->
<g id="Node000005" class="node">
<title>Node5</title>
<g id="a_Node000005"><a xlink:title=" ">
<polygon fill="#e0e0e0" stroke="#999999" points="322,-19 269,-19 269,0 322,0 322,-19"/>
<text text-anchor="middle" x="295.5" y="-7" font-family="Helvetica,sans-Serif" font-size="10.00">QTimer</text>
</a>
</g>
</g>
<!-- Node1&#45;&gt;Node5 -->
<g id="edge4_Node000001_Node000005" class="edge">
<title>Node1&#45;&gt;Node5</title>
<g id="a_edge4_Node000001_Node000005"><a xlink:title=" ">
<path fill="none" stroke="#63b8ff" d="M232.71,-109.73C234.77,-96.94 239.84,-72.76 250.5,-55 257.17,-43.89 267.24,-33.58 276.17,-25.68"/>
<polygon fill="#63b8ff" stroke="#63b8ff" points="278.52,-28.28 283.91,-19.16 274.01,-22.92 278.52,-28.28"/>
</a>
</g>
</g>
<!-- Node6 -->
<g id="Node000006" class="node">
<title>Node6</title>
<g id="a_Node000006"><a xlink:title=" ">
<polygon fill="#e0e0e0" stroke="#999999" points="351,-74 260,-74 260,-55 351,-55 351,-74"/>
<text text-anchor="middle" x="305.5" y="-62" font-family="Helvetica,sans-Serif" font-size="10.00">QElapsedTimer</text>
</a>
</g>
</g>
<!-- Node1&#45;&gt;Node6 -->
<g id="edge5_Node000001_Node000006" class="edge">
<title>Node1&#45;&gt;Node6</title>
<g id="a_edge5_Node000001_Node000006"><a xlink:title=" ">
<path fill="none" stroke="#63b8ff" d="M243.39,-109.98C254.65,-101.92 271.79,-89.65 285.21,-80.03"/>
<polygon fill="#63b8ff" stroke="#63b8ff" points="287.3,-82.84 293.39,-74.17 283.23,-77.15 287.3,-82.84"/>
</a>
</g>
</g>
<!-- Node7 -->
<g id="Node000007" class="node">
<title>Node7</title>
<g id="a_Node000007"><a xlink:title=" ">
<polygon fill="#e0e0e0" stroke="#999999" points="422,-74 369,-74 369,-55 422,-55 422,-74"/>
<text text-anchor="middle" x="395.5" y="-62" font-family="Helvetica,sans-Serif" font-size="10.00">QtMath</text>
</a>
</g>
</g>
<!-- Node1&#45;&gt;Node7 -->
<g id="edge6_Node000001_Node000007" class="edge">
<title>Node1&#45;&gt;Node7</title>
<g id="a_edge6_Node000001_Node000007"><a xlink:title=" ">
<path fill="none" stroke="#63b8ff" d="M257.85,-109.98C285.26,-101.13 328.39,-87.19 359.06,-77.28"/>
<polygon fill="#63b8ff" stroke="#63b8ff" points="360.5,-80.49 368.94,-74.08 358.35,-73.83 360.5,-80.49"/>
</a>
</g>
</g>
<!-- Node8 -->
<g id="Node000008" class="node">
<title>Node8</title>
<g id="a_Node000008"><a xlink:href="animationmanager_8h.html" target="_top" xlink:title="动画管理器声明，负责创建与管理界面动画效果的工具类。">
<polygon fill="white" stroke="#666666" points="558.5,-74 440.5,-74 440.5,-55 558.5,-55 558.5,-74"/>
<text text-anchor="middle" x="499.5" y="-62" font-family="Helvetica,sans-Serif" font-size="10.00">animationmanager.h</text>
</a>
</g>
</g>
<!-- Node1&#45;&gt;Node8 -->
<g id="edge7_Node000001_Node000008" class="edge">
<title>Node1&#45;&gt;Node8</title>
<g id="a_edge7_Node000001_Node000008"><a xlink:title=" ">
<path fill="none" stroke="#63b8ff" d="M274.56,-109.98C321.21,-100.76 395.7,-86.03 446.06,-76.07"/>
<polygon fill="#63b8ff" stroke="#63b8ff" points="446.97,-79.46 456.1,-74.08 445.61,-72.59 446.97,-79.46"/>
</a>
</g>
</g>
<!-- Node8&#45;&gt;Node5 -->
<g id="edge9_Node000008_Node000005" class="edge">
<title>Node8&#45;&gt;Node5</title>
<g id="a_edge9_Node000008_Node000005"><a xlink:title=" ">
<path fill="none" stroke="#63b8ff" d="M466.72,-54.98C429.81,-45.4 370.01,-29.86 331.73,-19.91"/>
<polygon fill="#63b8ff" stroke="#63b8ff" points="332.58,-16.52 322.02,-17.39 330.82,-23.29 332.58,-16.52"/>
</a>
</g>
</g>
<!-- Node9 -->
<g id="Node000009" class="node">
<title>Node9</title>
<g id="a_Node000009"><a xlink:title=" ">
<polygon fill="#e0e0e0" stroke="#999999" points="460.5,-19 404.5,-19 404.5,0 460.5,0 460.5,-19"/>
<text text-anchor="middle" x="432.5" y="-7" font-family="Helvetica,sans-Serif" font-size="10.00">QObject</text>
</a>
</g>
</g>
<!-- Node8&#45;&gt;Node9 -->
<g id="edge8_Node000008_Node000009" class="edge">
<title>Node8&#45;&gt;Node9</title>
<g id="a_edge8_Node000008_Node000009"><a xlink:title=" ">
<path fill="none" stroke="#63b8ff" d="M488.74,-54.98C478.73,-47.07 463.61,-35.11 451.57,-25.58"/>
<polygon fill="#63b8ff" stroke="#63b8ff" points="453.47,-22.63 443.46,-19.17 449.13,-28.12 453.47,-22.63"/>
</a>
</g>
</g>
<!-- Node10 -->
<g id="Node000010" class="node">
<title>Node10</title>
<g id="a_Node000010"><a xlink:title=" ">
<polygon fill="#e0e0e0" stroke="#999999" points="520,-19 479,-19 479,0 520,0 520,-19"/>
<text text-anchor="middle" x="499.5" y="-7" font-family="Helvetica,sans-Serif" font-size="10.00">QList</text>
</a>
</g>
</g>
<!-- Node8&#45;&gt;Node10 -->
<g id="edge10_Node000008_Node000010" class="edge">
<title>Node8&#45;&gt;Node10</title>
<g id="a_edge10_Node000008_Node000010"><a xlink:title=" ">
<path fill="none" stroke="#63b8ff" d="M499.5,-54.75C499.5,-47.8 499.5,-37.85 499.5,-29.13"/>
<polygon fill="#63b8ff" stroke="#63b8ff" points="503,-29.09 499.5,-19.09 496,-29.09 503,-29.09"/>
</a>
</g>
</g>
<!-- Node11 -->
<g id="Node000011" class="node">
<title>Node11</title>
<g id="a_Node000011"><a xlink:title=" ">
<polygon fill="#e0e0e0" stroke="#999999" points="617,-19 538,-19 538,0 617,0 617,-19"/>
<text text-anchor="middle" x="577.5" y="-7" font-family="Helvetica,sans-Serif" font-size="10.00">QApplication</text>
</a>
</g>
</g>
<!-- Node8&#45;&gt;Node11 -->
<g id="edge11_Node000008_Node000011" class="edge">
<title>Node8&#45;&gt;Node11</title>
<g id="a_edge11_Node000008_Node000011"><a xlink:title=" ">
<path fill="none" stroke="#63b8ff" d="M512.03,-54.98C523.9,-46.92 541.96,-34.65 556.11,-25.03"/>
<polygon fill="#63b8ff" stroke="#63b8ff" points="558.44,-27.69 564.74,-19.17 554.5,-21.9 558.44,-27.69"/>
</a>
</g>
</g>
</g>
</svg>
