<?xml version="1.0" encoding="UTF-8" standalone="no"?>
<!DOCTYPE svg PUBLIC "-//W3C//DTD SVG 1.1//EN"
 "http://www.w3.org/Graphics/SVG/1.1/DTD/svg11.dtd">
<!-- Generated by graphviz version 2.43.0 (0)
 -->
<!-- Title: techspeedgauge.h Pages: 1 -->
<svg width="459pt" height="137pt"
 viewBox="0.00 0.00 458.50 137.00" xmlns="http://www.w3.org/2000/svg" xmlns:xlink="http://www.w3.org/1999/xlink">
<g id="graph0" class="graph" transform="scale(1 1) rotate(0) translate(4 133)">
<title>techspeedgauge.h</title>
<!-- Node1 -->
<g id="Node000001" class="node">
<title>Node1</title>
<g id="a_Node000001"><a xlink:title="速度表盘/仪表控件的声明，用于显示当前速度或目标速度。">
<polygon fill="#999999" stroke="#666666" points="318,-129 212,-129 212,-110 318,-110 318,-129"/>
<text text-anchor="middle" x="265" y="-117" font-family="Helvetica,sans-Serif" font-size="10.00">techspeedgauge.h</text>
</a>
</g>
</g>
<!-- Node2 -->
<g id="Node000002" class="node">
<title>Node2</title>
<g id="a_Node000002"><a xlink:href="mainwindow_8h.html" target="_top" xlink:title="主窗口的声明，包含主要 UI 控件与界面逻辑的入口类。">
<polygon fill="white" stroke="#666666" points="196.5,-74 109.5,-74 109.5,-55 196.5,-55 196.5,-74"/>
<text text-anchor="middle" x="153" y="-62" font-family="Helvetica,sans-Serif" font-size="10.00">mainwindow.h</text>
</a>
</g>
</g>
<!-- Node1&#45;&gt;Node2 -->
<g id="edge1_Node000001_Node000002" class="edge">
<title>Node1&#45;&gt;Node2</title>
<g id="a_edge1_Node000001_Node000002"><a xlink:title=" ">
<path fill="none" stroke="#63b8ff" d="M237.81,-105.63C217.18,-95.87 189.38,-82.71 171.32,-74.17"/>
<polygon fill="#63b8ff" stroke="#63b8ff" points="236.47,-108.87 247.01,-109.98 239.46,-102.54 236.47,-108.87"/>
</a>
</g>
</g>
<!-- Node6 -->
<g id="Node000006" class="node">
<title>Node6</title>
<g id="a_Node000006"><a xlink:href="techspeedgauge_8cpp.html" target="_top" xlink:title=" ">
<polygon fill="white" stroke="#666666" points="450.5,-74 333.5,-74 333.5,-55 450.5,-55 450.5,-74"/>
<text text-anchor="middle" x="392" y="-62" font-family="Helvetica,sans-Serif" font-size="10.00">techspeedgauge.cpp</text>
</a>
</g>
</g>
<!-- Node1&#45;&gt;Node6 -->
<g id="edge5_Node000001_Node000006" class="edge">
<title>Node1&#45;&gt;Node6</title>
<g id="a_edge5_Node000001_Node000006"><a xlink:title=" ">
<path fill="none" stroke="#63b8ff" d="M294.88,-106.03C318.37,-96.23 350.47,-82.83 371.22,-74.17"/>
<polygon fill="#63b8ff" stroke="#63b8ff" points="293.29,-102.9 285.4,-109.98 295.98,-109.36 293.29,-102.9"/>
</a>
</g>
</g>
<!-- Node7 -->
<g id="Node000007" class="node">
<title>Node7</title>
<g id="a_Node000007"><a xlink:href="ui__mainwindow_8h.html" target="_top" xlink:title=" ">
<polygon fill="white" stroke="#666666" points="315.5,-74 214.5,-74 214.5,-55 315.5,-55 315.5,-74"/>
<text text-anchor="middle" x="265" y="-62" font-family="Helvetica,sans-Serif" font-size="10.00">ui_mainwindow.h</text>
</a>
</g>
</g>
<!-- Node1&#45;&gt;Node7 -->
<g id="edge6_Node000001_Node000007" class="edge">
<title>Node1&#45;&gt;Node7</title>
<g id="a_edge6_Node000001_Node000007"><a xlink:title=" ">
<path fill="none" stroke="#63b8ff" d="M265,-99.66C265,-90.93 265,-80.99 265,-74.09"/>
<polygon fill="#63b8ff" stroke="#63b8ff" points="261.5,-99.75 265,-109.75 268.5,-99.75 261.5,-99.75"/>
</a>
</g>
</g>
<!-- Node3 -->
<g id="Node000003" class="node">
<title>Node3</title>
<g id="a_Node000003"><a xlink:href="main_8cpp.html" target="_top" xlink:title=" ">
<polygon fill="white" stroke="#666666" points="62,-19 0,-19 0,0 62,0 62,-19"/>
<text text-anchor="middle" x="31" y="-7" font-family="Helvetica,sans-Serif" font-size="10.00">main.cpp</text>
</a>
</g>
</g>
<!-- Node2&#45;&gt;Node3 -->
<g id="edge2_Node000002_Node000003" class="edge">
<title>Node2&#45;&gt;Node3</title>
<g id="a_edge2_Node000002_Node000003"><a xlink:title=" ">
<path fill="none" stroke="#63b8ff" d="M123.99,-50.9C101.46,-41.11 70.8,-27.79 50.96,-19.17"/>
<polygon fill="#63b8ff" stroke="#63b8ff" points="122.83,-54.21 133.4,-54.98 125.62,-47.79 122.83,-54.21"/>
</a>
</g>
</g>
<!-- Node4 -->
<g id="Node000004" class="node">
<title>Node4</title>
<g id="a_Node000004"><a xlink:href="mainwindow_8cpp.html" target="_top" xlink:title=" ">
<polygon fill="white" stroke="#666666" points="342,-19 244,-19 244,0 342,0 342,-19"/>
<text text-anchor="middle" x="293" y="-7" font-family="Helvetica,sans-Serif" font-size="10.00">mainwindow.cpp</text>
</a>
</g>
</g>
<!-- Node2&#45;&gt;Node4 -->
<g id="edge3_Node000002_Node000004" class="edge">
<title>Node2&#45;&gt;Node4</title>
<g id="a_edge3_Node000002_Node000004"><a xlink:title=" ">
<path fill="none" stroke="#63b8ff" d="M184.91,-51.42C210.88,-41.59 246.92,-27.95 270.1,-19.17"/>
<polygon fill="#63b8ff" stroke="#63b8ff" points="183.61,-48.17 175.49,-54.98 186.08,-54.72 183.61,-48.17"/>
</a>
</g>
</g>
<!-- Node5 -->
<g id="Node000005" class="node">
<title>Node5</title>
<g id="a_Node000005"><a xlink:href="mainwindow__lifecycle_8cpp.html" target="_top" xlink:title=" ">
<polygon fill="white" stroke="#666666" points="226,-19 80,-19 80,0 226,0 226,-19"/>
<text text-anchor="middle" x="153" y="-7" font-family="Helvetica,sans-Serif" font-size="10.00">mainwindow_lifecycle.cpp</text>
</a>
</g>
</g>
<!-- Node2&#45;&gt;Node5 -->
<g id="edge4_Node000002_Node000005" class="edge">
<title>Node2&#45;&gt;Node5</title>
<g id="a_edge4_Node000002_Node000005"><a xlink:title=" ">
<path fill="none" stroke="#63b8ff" d="M153,-44.66C153,-35.93 153,-25.99 153,-19.09"/>
<polygon fill="#63b8ff" stroke="#63b8ff" points="149.5,-44.75 153,-54.75 156.5,-44.75 149.5,-44.75"/>
</a>
</g>
</g>
<!-- Node7&#45;&gt;Node4 -->
<g id="edge7_Node000007_Node000004" class="edge">
<title>Node7&#45;&gt;Node4</title>
<g id="a_edge7_Node000007_Node000004"><a xlink:title=" ">
<path fill="none" stroke="#63b8ff" d="M274.34,-45.82C279.09,-36.82 284.66,-26.29 288.46,-19.09"/>
<polygon fill="#63b8ff" stroke="#63b8ff" points="271.2,-44.27 269.62,-54.75 277.39,-47.54 271.2,-44.27"/>
</a>
</g>
</g>
<!-- Node7&#45;&gt;Node5 -->
<g id="edge8_Node000007_Node000005" class="edge">
<title>Node7&#45;&gt;Node5</title>
<g id="a_edge8_Node000007_Node000005"><a xlink:title=" ">
<path fill="none" stroke="#63b8ff" d="M237.81,-50.63C217.18,-40.87 189.38,-27.71 171.32,-19.17"/>
<polygon fill="#63b8ff" stroke="#63b8ff" points="236.47,-53.87 247.01,-54.98 239.46,-47.54 236.47,-53.87"/>
</a>
</g>
</g>
</g>
</svg>
